<?xml version="1.0" encoding="UTF-8"?>
<svg xmlns="http://www.w3.org/2000/svg" xmlns:xlink="http://www.w3.org/1999/xlink" width="512" height="512" viewBox="0 0 58 58" version="1.1"><!-- Generator: Sketch 51.3 (57544) - http://www.bohemiancoding.com/sketch --><title>056 - Tyre</title><desc>Created with Sketch.</desc><defs/><g id="Page-1" stroke="none" stroke-width="1" fill="none" fill-rule="evenodd"><g id="056---Tyre" transform="translate(-1.000000, -1.000000)" fill-rule="nonzero"><path d="M35.65,35.66 C35.7833333,35.53 35.9033333,35.4 36.01,35.27 C36.13,35.14 36.24,35 36.35,34.86 C36.44,34.74 36.53,34.62 36.61,34.5 C36.6490598,34.459821 36.6796634,34.4122153 36.7,34.36 C36.78,34.24 36.86,34.11 36.93,33.98 C37.2837985,33.3798878 37.5530092,32.7337821 37.73,32.06 C37.73,32.05 37.74,32.05 37.74,32.04 C37.7988468,32.0580762 37.8590359,32.0714516 37.92,32.08 L47.75,32.9 C48.0733565,30.9838208 48.0767356,29.0272847 47.76,27.11 L47.76,27.1 L37.92,27.92 C37.8590359,27.9285484 37.7988468,27.9419238 37.74,27.96 C37.74,27.95 37.73,27.95 37.73,27.94 C37.4350232,26.8291533 36.9028084,25.7954285 36.17,24.91 C36.0920721,24.8088021 36.0086116,24.7119878 35.92,24.62 C35.9086836,24.5987266 35.8912734,24.5813164 35.87,24.57 C35.8018564,24.4885321 35.7283603,24.4116953 35.65,24.34 C35.64,24.32 35.64,24.32 35.63,24.32 C35.6779313,24.2807631 35.7185554,24.2333684 35.75,24.18 L41.39,16.07 C39.8966901,14.836317 38.2064228,13.862723 36.39,13.19 L36.37,13.18 L32.16,22.11 C32.14,22.17 32.12,22.22 32.1,22.28 L32.08,22.28 C31.7343297,22.1898661 31.3837472,22.1197496 31.03,22.07 C30.86,22.05 30.68,22.03 30.5,22.02 C30.34,22.01 30.17,22 30,22 C29.81,22 29.62,22.01 29.44,22.02 C29.28,22.03 29.11,22.05 28.94,22.07 C28.5961819,22.1154527 28.2555242,22.1822484 27.92,22.27 C27.91,22.28 27.91,22.28 27.9,22.28 C27.88,22.22 27.86,22.17 27.84,22.11 L23.63,13.18 C22.7180217,13.5098181 21.8377646,13.9214973 21,14.41 C20.1565016,14.8926609 19.3567932,15.4481069 18.61,16.07 L24.25,24.18 C24.2814446,24.2333684 24.3220687,24.2807631 24.37,24.32 C24.36,24.32 24.36,24.32 24.35,24.33 L24.35,24.34 C24.2166667,24.47 24.0966667,24.6 23.99,24.73 C23.87,24.86 23.76,25 23.65,25.14 C23.56,25.26 23.47,25.38 23.39,25.5 C23.3509402,25.540179 23.3203366,25.5877847 23.3,25.64 C23.22,25.76 23.14,25.89 23.07,26.02 C22.7162015,26.6201122 22.4469908,27.2662179 22.27,27.94 C22.27,27.95 22.26,27.95 22.26,27.96 C22.2011532,27.9419238 22.1409641,27.9285484 22.08,27.92 L12.25,27.1 C11.9266435,29.0161792 11.9232644,30.9727153 12.24,32.89 L12.24,32.9 L22.08,32.08 C22.1409641,32.0714516 22.2011532,32.0580762 22.26,32.04 C22.26,32.05 22.27,32.05 22.27,32.06 C22.5649768,33.1708467 23.0971916,34.2045715 23.83,35.09 C23.9079279,35.1911979 23.9913884,35.2880122 24.08,35.38 C24.0913164,35.4012734 24.1087266,35.4186836 24.13,35.43 C24.1981436,35.5114679 24.2716397,35.5883047 24.35,35.66 C24.36,35.68 24.36,35.68 24.37,35.68 C24.3220687,35.7192369 24.2814446,35.7666316 24.25,35.82 L18.61,43.93 C20.1033099,45.163683 21.7935772,46.137277 23.61,46.81 L23.63,46.82 L27.84,37.89 C27.86,37.83 27.88,37.78 27.9,37.72 L27.92,37.72 C28.2656703,37.8101339 28.6162528,37.8802504 28.97,37.93 C29.14,37.95 29.32,37.97 29.5,37.98 C29.66,37.99 29.83,38 30,38 C30.19,38 30.38,37.99 30.56,37.98 C30.72,37.97 30.89,37.95 31.06,37.93 C31.4038181,37.8845473 31.7444758,37.8177516 32.08,37.73 C32.09,37.72 32.09,37.72 32.1,37.72 C32.12,37.78 32.14,37.83 32.16,37.89 L36.37,46.82 C37.2819783,46.4901819 38.1622354,46.0785027 39,45.59 C39.8434984,45.1073391 40.6432068,44.5518931 41.39,43.93 L35.75,35.82 C35.7185554,35.7666316 35.6779313,35.7192369 35.63,35.68 C35.64,35.68 35.64,35.68 35.65,35.67 L35.65,35.66 Z M31.5,32.6 C30.0647729,33.4269532 28.2309269,32.9342176 27.4034422,31.4992969 C26.5759574,30.0643762 27.0680138,28.2303478 28.502628,27.4023317 C29.9372421,26.5743156 31.7714526,27.0656927 32.6,28.5 C33.4252757,29.9363528 32.9334186,31.7696384 31.5,32.6 Z" id="Shape" fill="#7F8C8D"/><path d="M24.25,24.18 L24.35,24.33 C24.36,24.32 24.36,24.32 24.37,24.32 C24.3220687,24.2807631 24.2814446,24.2333684 24.25,24.18 Z M27.84,22.11 C27.86,22.17 27.88,22.22 27.9,22.28 C27.91,22.28 27.91,22.28 27.92,22.27 L27.84,22.11 Z M27.84,22.11 C27.86,22.17 27.88,22.22 27.9,22.28 C27.91,22.28 27.91,22.28 27.92,22.27 L27.84,22.11 Z M24.25,24.18 L24.35,24.33 C24.36,24.32 24.36,24.32 24.37,24.32 C24.3220687,24.2807631 24.2814446,24.2333684 24.25,24.18 Z M24.25,24.18 L24.35,24.33 C24.36,24.32 24.36,24.32 24.37,24.32 C24.3220687,24.2807631 24.2814446,24.2333684 24.25,24.18 Z M27.84,22.11 C27.86,22.17 27.88,22.22 27.9,22.28 C27.91,22.28 27.91,22.28 27.92,22.27 L27.84,22.11 Z M35.65,35.67 C35.64,35.68 35.64,35.68 35.63,35.68 C35.6779313,35.7192369 35.7185554,35.7666316 35.75,35.82 L35.65,35.67 Z M35.65,35.67 C35.64,35.68 35.64,35.68 35.63,35.68 C35.6779313,35.7192369 35.7185554,35.7666316 35.75,35.82 L35.65,35.67 Z M27.84,22.11 C27.86,22.17 27.88,22.22 27.9,22.28 C27.91,22.28 27.91,22.28 27.92,22.27 L27.84,22.11 Z M24.25,24.18 L24.35,24.33 C24.36,24.32 24.36,24.32 24.37,24.32 C24.3220687,24.2807631 24.2814446,24.2333684 24.25,24.18 Z M24.25,24.18 L24.35,24.33 C24.36,24.32 24.36,24.32 24.37,24.32 C24.3220687,24.2807631 24.2814446,24.2333684 24.25,24.18 Z M27.84,22.11 C27.86,22.17 27.88,22.22 27.9,22.28 C27.91,22.28 27.91,22.28 27.92,22.27 L27.84,22.11 Z M32.1,37.72 C32.09,37.72 32.09,37.72 32.08,37.73 L32.16,37.89 C32.14,37.83 32.12,37.78 32.1,37.72 Z M35.65,35.67 C35.64,35.68 35.64,35.68 35.63,35.68 C35.6779313,35.7192369 35.7185554,35.7666316 35.75,35.82 L35.65,35.67 Z M35.65,35.67 C35.64,35.68 35.64,35.68 35.63,35.68 C35.6779313,35.7192369 35.7185554,35.7666316 35.75,35.82 L35.65,35.67 Z M32.08,37.73 L32.16,37.89 C32.14,37.83 32.12,37.78 32.1,37.72 C32.09,37.72 32.09,37.72 32.08,37.73 Z M27.9,22.28 C27.91,22.28 27.91,22.28 27.92,22.27 L27.84,22.11 C27.86,22.17 27.88,22.22 27.9,22.28 Z M24.35,24.33 C24.36,24.32 24.36,24.32 24.37,24.32 C24.3220687,24.2807631 24.2814446,24.2333684 24.25,24.18 L24.35,24.33 Z M55.11,15.5 C49.2455313,5.34104022 37.8386039,-0.284579855 26.2088221,1.24663963 C14.5790404,2.77785911 5.01699606,11.1643305 1.98193489,22.4950348 C-1.05312629,33.8257392 3.03657872,45.8689906 12.3438218,53.0084362 C21.651065,60.1478817 34.3426996,60.9773422 44.5,55.11 C51.1607839,51.2654762 56.0209751,44.9318147 58.0108603,37.5030353 C60.0007454,30.0742559 58.957234,22.1592189 55.11,15.5 Z M47.75,32.9 C47.0544258,37.2322208 44.7909458,41.1577215 41.39,43.93 C40.6432068,44.5518931 39.8434984,45.1073391 39,45.59 C38.1622354,46.0785027 37.2819783,46.4901819 36.37,46.82 C32.2675535,48.3851902 27.7324465,48.3851902 23.63,46.82 L23.61,46.81 C21.7935772,46.137277 20.1033099,45.163683 18.61,43.93 C15.2061211,41.1587029 12.9391505,37.2333206 12.24,32.9 L12.24,32.89 C11.9232644,30.9727153 11.9266435,29.0161792 12.25,27.1 C12.9455742,22.7677792 15.2090542,18.8422785 18.61,16.07 C19.3567932,15.4481069 20.1565016,14.8926609 21,14.41 C21.8377646,13.9214973 22.7180217,13.5098181 23.63,13.18 C27.7324465,11.6148098 32.2675535,11.6148098 36.37,13.18 L36.39,13.19 C38.2064228,13.862723 39.8966901,14.836317 41.39,16.07 C44.7938789,18.8412971 47.0608495,22.7666794 47.76,27.1 L47.76,27.11 C48.0767356,29.0272847 48.0733565,30.9838208 47.75,32.9 Z M35.63,35.68 C35.6779313,35.7192369 35.7185554,35.7666316 35.75,35.82 L35.65,35.67 C35.64,35.68 35.64,35.68 35.63,35.68 Z M32.08,37.73 L32.16,37.89 C32.14,37.83 32.12,37.78 32.1,37.72 C32.09,37.72 32.09,37.72 32.08,37.73 Z M27.9,22.28 C27.91,22.28 27.91,22.28 27.92,22.27 L27.84,22.11 C27.86,22.17 27.88,22.22 27.9,22.28 Z M24.35,24.33 C24.36,24.32 24.36,24.32 24.37,24.32 C24.3220687,24.2807631 24.2814446,24.2333684 24.25,24.18 L24.35,24.33 Z M24.25,24.18 L24.35,24.33 C24.36,24.32 24.36,24.32 24.37,24.32 C24.3220687,24.2807631 24.2814446,24.2333684 24.25,24.18 Z M27.84,22.11 C27.86,22.17 27.88,22.22 27.9,22.28 C27.91,22.28 27.91,22.28 27.92,22.27 L27.84,22.11 Z M32.1,37.72 C32.09,37.72 32.09,37.72 32.08,37.73 L32.16,37.89 C32.14,37.83 32.12,37.78 32.1,37.72 Z M35.65,35.67 C35.64,35.68 35.64,35.68 35.63,35.68 C35.6779313,35.7192369 35.7185554,35.7666316 35.75,35.82 L35.65,35.67 Z M35.65,35.67 C35.64,35.68 35.64,35.68 35.63,35.68 C35.6779313,35.7192369 35.7185554,35.7666316 35.75,35.82 L35.65,35.67 Z M32.1,37.72 C32.09,37.72 32.09,37.72 32.08,37.73 L32.16,37.89 C32.14,37.83 32.12,37.78 32.1,37.72 Z M27.84,22.11 C27.86,22.17 27.88,22.22 27.9,22.28 C27.91,22.28 27.91,22.28 27.92,22.27 L27.84,22.11 Z M24.25,24.18 L24.35,24.33 C24.36,24.32 24.36,24.32 24.37,24.32 C24.3220687,24.2807631 24.2814446,24.2333684 24.25,24.18 Z M24.25,24.18 L24.35,24.33 C24.36,24.32 24.36,24.32 24.37,24.32 C24.3220687,24.2807631 24.2814446,24.2333684 24.25,24.18 Z M27.84,22.11 C27.86,22.17 27.88,22.22 27.9,22.28 C27.91,22.28 27.91,22.28 27.92,22.27 L27.84,22.11 Z M27.84,22.11 C27.86,22.17 27.88,22.22 27.9,22.28 C27.91,22.28 27.91,22.28 27.92,22.27 L27.84,22.11 Z M24.25,24.18 L24.35,24.33 C24.36,24.32 24.36,24.32 24.37,24.32 C24.3220687,24.2807631 24.2814446,24.2333684 24.25,24.18 Z M24.25,24.18 L24.35,24.33 C24.36,24.32 24.36,24.32 24.37,24.32 C24.3220687,24.2807631 24.2814446,24.2333684 24.25,24.18 Z M24.25,24.18 L24.35,24.33 C24.36,24.32 24.36,24.32 24.37,24.32 C24.3220687,24.2807631 24.2814446,24.2333684 24.25,24.18 Z" id="Shape" fill="#2C3E50"/><path d="M7,21.19 C6.66457919,21.1900621 6.35146746,21.0219572 6.16619937,20.7423452 C5.98093129,20.4627333 5.94818588,20.1088605 6.079,19.8 C8.27252017,14.6093145 12.1092445,10.2821528 17,7.483 C17.8402169,7.00442723 18.7050843,6.57049148 19.591,6.183 C20.0974451,5.96208613 20.6870861,6.19355491 20.908,6.70000002 C21.1289139,7.20644512 20.8974451,7.79608609 20.391,8.017 C19.5703366,8.3742651 18.7692101,8.77482832 17.991,9.217 C13.4803346,11.7998998 9.942488,15.7923614 7.921,20.581 C7.76405144,20.9504477 7.40140307,21.1902446 7,21.19 Z" id="Shape" fill="#8697CB"/><path d="M37.32,54.9 C36.824877,54.9003139 36.4040679,54.5382605 36.3304742,54.0486373 C36.2568805,53.5590141 36.5526622,53.0892523 37.026,52.944 C38.7588983,52.4100541 40.4271266,51.685277 42,50.783 C46.5137892,48.2013379 50.0548676,44.2087975 52.079,39.419 C52.2185122,39.0899584 52.5229684,38.8603403 52.8776829,38.8166406 C53.2323974,38.7729409 53.5834806,38.9217987 53.7986829,39.2071406 C54.0138852,39.4924825 54.0605122,39.8709584 53.921,40.2 C51.7274798,45.3906855 47.8907555,49.7178472 43,52.517 C41.2964216,53.492913 39.4901001,54.2773515 37.614,54.856 C37.5188573,54.8857483 37.4196832,54.9005906 37.32,54.9 Z" id="Shape" fill="#8697CB"/><circle id="Oval" fill="#8697CB" cx="23" cy="6" r="1"/><circle id="Oval" fill="#BDC3C7" cx="30" cy="30" r="8"/><path d="M31.5,32.6 C30.0647729,33.4269532 28.2309269,32.9342176 27.4034422,31.4992969 C26.5759574,30.0643762 27.0680138,28.2303478 28.502628,27.4023317 C29.9372421,26.5743156 31.7714526,27.0656927 32.6,28.5 C33.4252757,29.9363528 32.9334186,31.7696384 31.5,32.6 Z" id="Shape" fill="#35495E"/></g></g></svg>
