<?xml version="1.0" encoding="UTF-8"?>
<svg xmlns="http://www.w3.org/2000/svg" xmlns:xlink="http://www.w3.org/1999/xlink" width="512" height="512" viewBox="0 0 60 60" version="1.1"><!-- Generator: Sketch 51.3 (57544) - http://www.bohemiancoding.com/sketch --><title>056 - Tyre</title><desc>Created with Sketch.</desc><defs/><g id="Page-1" stroke="none" stroke-width="1" fill="none" fill-rule="evenodd"><g id="056---Tyre" fill-rule="nonzero"><path d="M35.65,35.66 C35.7833333,35.53 35.9033333,35.4 36.01,35.27 C36.13,35.14 36.24,35 36.35,34.86 C36.44,34.74 36.53,34.62 36.61,34.5 C36.6490598,34.459821 36.6796634,34.4122153 36.7,34.36 C36.78,34.24 36.86,34.11 36.93,33.98 C37.2837985,33.3798878 37.5530092,32.7337821 37.73,32.06 C37.73,32.05 37.74,32.05 37.74,32.04 C37.7988468,32.0580762 37.8590359,32.0714516 37.92,32.08 L47.75,32.9 C48.0733565,30.9838208 48.0767356,29.0272847 47.76,27.11 L47.76,27.1 L37.92,27.92 C37.8590359,27.9285484 37.7988468,27.9419238 37.74,27.96 C37.74,27.95 37.73,27.95 37.73,27.94 C37.4350232,26.8291533 36.9028084,25.7954285 36.17,24.91 C36.0920721,24.8088021 36.0086116,24.7119878 35.92,24.62 C35.9086836,24.5987266 35.8912734,24.5813164 35.87,24.57 C35.8018564,24.4885321 35.7283603,24.4116953 35.65,24.34 C35.64,24.32 35.64,24.32 35.63,24.32 C35.6779313,24.2807631 35.7185554,24.2333684 35.75,24.18 L41.39,16.07 C39.8966901,14.836317 38.2064228,13.862723 36.39,13.19 L36.37,13.18 L32.16,22.11 C32.14,22.17 32.12,22.22 32.1,22.28 L32.08,22.28 C31.7343297,22.1898661 31.3837472,22.1197496 31.03,22.07 C30.86,22.05 30.68,22.03 30.5,22.02 C30.34,22.01 30.17,22 30,22 C29.81,22 29.62,22.01 29.44,22.02 C29.28,22.03 29.11,22.05 28.94,22.07 C28.5961819,22.1154527 28.2555242,22.1822484 27.92,22.27 C27.91,22.28 27.91,22.28 27.9,22.28 C27.88,22.22 27.86,22.17 27.84,22.11 L23.63,13.18 C22.7180217,13.5098181 21.8377646,13.9214973 21,14.41 C20.1565016,14.8926609 19.3567932,15.4481069 18.61,16.07 L24.25,24.18 C24.2814446,24.2333684 24.3220687,24.2807631 24.37,24.32 C24.36,24.32 24.36,24.32 24.35,24.33 L24.35,24.34 C24.2166667,24.47 24.0966667,24.6 23.99,24.73 C23.87,24.86 23.76,25 23.65,25.14 C23.56,25.26 23.47,25.38 23.39,25.5 C23.3509402,25.540179 23.3203366,25.5877847 23.3,25.64 C23.22,25.76 23.14,25.89 23.07,26.02 C22.7162015,26.6201122 22.4469908,27.2662179 22.27,27.94 C22.27,27.95 22.26,27.95 22.26,27.96 C22.2011532,27.9419238 22.1409641,27.9285484 22.08,27.92 L12.25,27.1 C11.9266435,29.0161792 11.9232644,30.9727153 12.24,32.89 L12.24,32.9 L22.08,32.08 C22.1409641,32.0714516 22.2011532,32.0580762 22.26,32.04 C22.26,32.05 22.27,32.05 22.27,32.06 C22.5649768,33.1708467 23.0971916,34.2045715 23.83,35.09 C23.9079279,35.1911979 23.9913884,35.2880122 24.08,35.38 C24.0913164,35.4012734 24.1087266,35.4186836 24.13,35.43 C24.1981436,35.5114679 24.2716397,35.5883047 24.35,35.66 C24.36,35.68 24.36,35.68 24.37,35.68 C24.3220687,35.7192369 24.2814446,35.7666316 24.25,35.82 L18.61,43.93 C20.1033099,45.163683 21.7935772,46.137277 23.61,46.81 L23.63,46.82 L27.84,37.89 C27.86,37.83 27.88,37.78 27.9,37.72 L27.92,37.72 C28.2656703,37.8101339 28.6162528,37.8802504 28.97,37.93 C29.14,37.95 29.32,37.97 29.5,37.98 C29.66,37.99 29.83,38 30,38 C30.19,38 30.38,37.99 30.56,37.98 C30.72,37.97 30.89,37.95 31.06,37.93 C31.4038181,37.8845473 31.7444758,37.8177516 32.08,37.73 C32.09,37.72 32.09,37.72 32.1,37.72 C32.12,37.78 32.14,37.83 32.16,37.89 L36.37,46.82 C37.2819783,46.4901819 38.1622354,46.0785027 39,45.59 C39.8434984,45.1073391 40.6432068,44.5518931 41.39,43.93 L35.75,35.82 C35.7185554,35.7666316 35.6779313,35.7192369 35.63,35.68 C35.64,35.68 35.64,35.68 35.65,35.67 L35.65,35.66 Z M31.5,32.6 C30.0647729,33.4269532 28.2309269,32.9342176 27.4034422,31.4992969 C26.5759574,30.0643762 27.0680138,28.2303478 28.502628,27.4023317 C29.9372421,26.5743156 31.7714526,27.0656927 32.6,28.5 C33.4252757,29.9363528 32.9334186,31.7696384 31.5,32.6 Z" id="Shape" fill="#7F8E94"/><path d="M24.25,24.18 L24.35,24.33 C24.36,24.32 24.36,24.32 24.37,24.32 C24.3220687,24.2807631 24.2814446,24.2333684 24.25,24.18 Z M24.25,24.18 L24.35,24.33 C24.36,24.32 24.36,24.32 24.37,24.32 C24.3220687,24.2807631 24.2814446,24.2333684 24.25,24.18 Z M24.25,24.18 L24.35,24.33 C24.36,24.32 24.36,24.32 24.37,24.32 C24.3220687,24.2807631 24.2814446,24.2333684 24.25,24.18 Z M27.84,22.11 C27.86,22.17 27.88,22.22 27.9,22.28 C27.91,22.28 27.91,22.28 27.92,22.27 L27.84,22.11 Z M27.84,22.11 C27.86,22.17 27.88,22.22 27.9,22.28 C27.91,22.28 27.91,22.28 27.92,22.27 L27.84,22.11 Z M24.25,24.18 L24.35,24.33 C24.36,24.32 24.36,24.32 24.37,24.32 C24.3220687,24.2807631 24.2814446,24.2333684 24.25,24.18 Z M24.25,24.18 L24.35,24.33 C24.36,24.32 24.36,24.32 24.37,24.32 C24.3220687,24.2807631 24.2814446,24.2333684 24.25,24.18 Z M27.84,22.11 C27.86,22.17 27.88,22.22 27.9,22.28 C27.91,22.28 27.91,22.28 27.92,22.27 L27.84,22.11 Z M32.1,37.72 C32.09,37.72 32.09,37.72 32.08,37.73 L32.16,37.89 C32.14,37.83 32.12,37.78 32.1,37.72 Z M35.65,35.67 C35.64,35.68 35.64,35.68 35.63,35.68 C35.6779313,35.7192369 35.7185554,35.7666316 35.75,35.82 L35.65,35.67 Z M35.65,35.67 C35.64,35.68 35.64,35.68 35.63,35.68 C35.6779313,35.7192369 35.7185554,35.7666316 35.75,35.82 L35.65,35.67 Z M32.1,37.72 C32.09,37.72 32.09,37.72 32.08,37.73 L32.16,37.89 C32.14,37.83 32.12,37.78 32.1,37.72 Z M27.84,22.11 C27.86,22.17 27.88,22.22 27.9,22.28 C27.91,22.28 27.91,22.28 27.92,22.27 L27.84,22.11 Z M24.25,24.18 L24.35,24.33 C24.36,24.32 24.36,24.32 24.37,24.32 C24.3220687,24.2807631 24.2814446,24.2333684 24.25,24.18 Z M24.25,24.18 L24.35,24.33 C24.36,24.32 24.36,24.32 24.37,24.32 C24.3220687,24.2807631 24.2814446,24.2333684 24.25,24.18 Z M27.84,22.11 C27.86,22.17 27.88,22.22 27.9,22.28 C27.91,22.28 27.91,22.28 27.92,22.27 L27.84,22.11 Z M32.1,37.72 C32.09,37.72 32.09,37.72 32.08,37.73 L32.16,37.89 C32.14,37.83 32.12,37.78 32.1,37.72 Z M35.65,35.67 C35.64,35.68 35.64,35.68 35.63,35.68 C35.6779313,35.7192369 35.7185554,35.7666316 35.75,35.82 L35.65,35.67 Z M35.65,35.67 C35.64,35.68 35.64,35.68 35.63,35.68 C35.6779313,35.7192369 35.7185554,35.7666316 35.75,35.82 L35.65,35.67 Z M32.1,37.72 C32.09,37.72 32.09,37.72 32.08,37.73 L32.16,37.89 C32.14,37.83 32.12,37.78 32.1,37.72 Z M27.84,22.11 C27.86,22.17 27.88,22.22 27.9,22.28 C27.91,22.28 27.91,22.28 27.92,22.27 L27.84,22.11 Z M24.25,24.18 L24.35,24.33 C24.36,24.32 24.36,24.32 24.37,24.32 C24.3220687,24.2807631 24.2814446,24.2333684 24.25,24.18 Z M24.25,24.18 L24.35,24.33 C24.36,24.32 24.36,24.32 24.37,24.32 C24.3220687,24.2807631 24.2814446,24.2333684 24.25,24.18 Z M27.84,22.11 C27.86,22.17 27.88,22.22 27.9,22.28 C27.91,22.28 27.91,22.28 27.92,22.27 L27.84,22.11 Z M32.1,37.72 C32.09,37.72 32.09,37.72 32.08,37.73 L32.16,37.89 C32.14,37.83 32.12,37.78 32.1,37.72 Z M35.65,35.67 C35.64,35.68 35.64,35.68 35.63,35.68 C35.6779313,35.7192369 35.7185554,35.7666316 35.75,35.82 L35.65,35.67 Z M35.65,35.67 C35.64,35.68 35.64,35.68 35.63,35.68 C35.6779313,35.7192369 35.7185554,35.7666316 35.75,35.82 L35.65,35.67 Z M32.08,37.73 L32.16,37.89 C32.14,37.83 32.12,37.78 32.1,37.72 C32.09,37.72 32.09,37.72 32.08,37.73 Z M27.9,22.28 C27.91,22.28 27.91,22.28 27.92,22.27 L27.84,22.11 C27.86,22.17 27.88,22.22 27.9,22.28 Z M24.35,24.33 C24.36,24.32 24.36,24.32 24.37,24.32 C24.3220687,24.2807631 24.2814446,24.2333684 24.25,24.18 L24.35,24.33 Z M55.11,15.5 C49.65581,6.04373522 39.3507441,0.454415918 28.45,1.04 C43.8549846,1.8228415 55.9515196,14.5277186 55.9781509,29.9525584 C56.0047822,45.3773983 43.9521896,58.1239693 28.55,58.96 C39.1549971,59.4883105 49.2007967,54.1785994 54.7377989,45.1184294 C60.2748012,36.0582593 60.4175798,24.6964489 55.11,15.5 Z M35.63,35.68 C35.6779313,35.7192369 35.7185554,35.7666316 35.75,35.82 L35.65,35.67 C35.64,35.68 35.64,35.68 35.63,35.68 Z M32.08,37.73 L32.16,37.89 C32.14,37.83 32.12,37.78 32.1,37.72 C32.09,37.72 32.09,37.72 32.08,37.73 Z M27.9,22.28 C27.91,22.28 27.91,22.28 27.92,22.27 L27.84,22.11 C27.86,22.17 27.88,22.22 27.9,22.28 Z M24.35,24.33 C24.36,24.32 24.36,24.32 24.37,24.32 C24.3220687,24.2807631 24.2814446,24.2333684 24.25,24.18 L24.35,24.33 Z M24.25,24.18 L24.35,24.33 C24.36,24.32 24.36,24.32 24.37,24.32 C24.3220687,24.2807631 24.2814446,24.2333684 24.25,24.18 Z M27.84,22.11 C27.86,22.17 27.88,22.22 27.9,22.28 C27.91,22.28 27.91,22.28 27.92,22.27 L27.84,22.11 Z M32.1,37.72 C32.09,37.72 32.09,37.72 32.08,37.73 L32.16,37.89 C32.14,37.83 32.12,37.78 32.1,37.72 Z M35.65,35.67 C35.64,35.68 35.64,35.68 35.63,35.68 C35.6779313,35.7192369 35.7185554,35.7666316 35.75,35.82 L35.65,35.67 Z M35.65,35.67 C35.64,35.68 35.64,35.68 35.63,35.68 C35.6779313,35.7192369 35.7185554,35.7666316 35.75,35.82 L35.65,35.67 Z M32.1,37.72 C32.09,37.72 32.09,37.72 32.08,37.73 L32.16,37.89 C32.14,37.83 32.12,37.78 32.1,37.72 Z M27.84,22.11 C27.86,22.17 27.88,22.22 27.9,22.28 C27.91,22.28 27.91,22.28 27.92,22.27 L27.84,22.11 Z M24.25,24.18 L24.35,24.33 C24.36,24.32 24.36,24.32 24.37,24.32 C24.3220687,24.2807631 24.2814446,24.2333684 24.25,24.18 Z M24.25,24.18 L24.35,24.33 C24.36,24.32 24.36,24.32 24.37,24.32 C24.3220687,24.2807631 24.2814446,24.2333684 24.25,24.18 Z M27.84,22.11 C27.86,22.17 27.88,22.22 27.9,22.28 C27.91,22.28 27.91,22.28 27.92,22.27 L27.84,22.11 Z M32.1,37.72 C32.09,37.72 32.09,37.72 32.08,37.73 L32.16,37.89 C32.14,37.83 32.12,37.78 32.1,37.72 Z M35.65,35.67 C35.64,35.68 35.64,35.68 35.63,35.68 C35.6779313,35.7192369 35.7185554,35.7666316 35.75,35.82 L35.65,35.67 Z M35.65,35.67 C35.64,35.68 35.64,35.68 35.63,35.68 C35.6779313,35.7192369 35.7185554,35.7666316 35.75,35.82 L35.65,35.67 Z M32.1,37.72 C32.09,37.72 32.09,37.72 32.08,37.73 L32.16,37.89 C32.14,37.83 32.12,37.78 32.1,37.72 Z M27.84,22.11 C27.86,22.17 27.88,22.22 27.9,22.28 C27.91,22.28 27.91,22.28 27.92,22.27 L27.84,22.11 Z M24.25,24.18 L24.35,24.33 C24.36,24.32 24.36,24.32 24.37,24.32 C24.3220687,24.2807631 24.2814446,24.2333684 24.25,24.18 Z M24.25,24.18 L24.35,24.33 C24.36,24.32 24.36,24.32 24.37,24.32 C24.3220687,24.2807631 24.2814446,24.2333684 24.25,24.18 Z M27.84,22.11 C27.86,22.17 27.88,22.22 27.9,22.28 C27.91,22.28 27.91,22.28 27.92,22.27 L27.84,22.11 Z M35.65,35.67 C35.64,35.68 35.64,35.68 35.63,35.68 C35.6779313,35.7192369 35.7185554,35.7666316 35.75,35.82 L35.65,35.67 Z M35.65,35.67 C35.64,35.68 35.64,35.68 35.63,35.68 C35.6779313,35.7192369 35.7185554,35.7666316 35.75,35.82 L35.65,35.67 Z M27.84,22.11 C27.86,22.17 27.88,22.22 27.9,22.28 C27.91,22.28 27.91,22.28 27.92,22.27 L27.84,22.11 Z M24.25,24.18 L24.35,24.33 C24.36,24.32 24.36,24.32 24.37,24.32 C24.3220687,24.2807631 24.2814446,24.2333684 24.25,24.18 Z M24.25,24.18 L24.35,24.33 C24.36,24.32 24.36,24.32 24.37,24.32 C24.3220687,24.2807631 24.2814446,24.2333684 24.25,24.18 Z M27.84,22.11 C27.86,22.17 27.88,22.22 27.9,22.28 C27.91,22.28 27.91,22.28 27.92,22.27 L27.84,22.11 Z M27.84,22.11 C27.86,22.17 27.88,22.22 27.9,22.28 C27.91,22.28 27.91,22.28 27.92,22.27 L27.84,22.11 Z M24.25,24.18 L24.35,24.33 C24.36,24.32 24.36,24.32 24.37,24.32 C24.3220687,24.2807631 24.2814446,24.2333684 24.25,24.18 Z" id="Shape" fill="#283593"/><path d="M21.25,24.18 L21.35,24.33 C21.36,24.32 21.36,24.32 21.37,24.32 C21.3220687,24.2807631 21.2814446,24.2333684 21.25,24.18 Z M21.25,24.18 L21.35,24.33 C21.36,24.32 21.36,24.32 21.37,24.32 C21.3220687,24.2807631 21.2814446,24.2333684 21.25,24.18 Z M21.25,24.18 L21.35,24.33 C21.36,24.32 21.36,24.32 21.37,24.32 C21.3220687,24.2807631 21.2814446,24.2333684 21.25,24.18 Z M24.84,22.11 C24.86,22.17 24.88,22.22 24.9,22.28 C24.91,22.28 24.91,22.28 24.92,22.27 L24.84,22.11 Z M24.84,22.11 C24.86,22.17 24.88,22.22 24.9,22.28 C24.91,22.28 24.91,22.28 24.92,22.27 L24.84,22.11 Z M21.25,24.18 L21.35,24.33 C21.36,24.32 21.36,24.32 21.37,24.32 C21.3220687,24.2807631 21.2814446,24.2333684 21.25,24.18 Z M21.25,24.18 L21.35,24.33 C21.36,24.32 21.36,24.32 21.37,24.32 C21.3220687,24.2807631 21.2814446,24.2333684 21.25,24.18 Z M24.84,22.11 C24.86,22.17 24.88,22.22 24.9,22.28 C24.91,22.28 24.91,22.28 24.92,22.27 L24.84,22.11 Z M29.1,37.72 C29.09,37.72 29.09,37.72 29.08,37.73 L29.16,37.89 C29.14,37.83 29.12,37.78 29.1,37.72 Z M32.65,35.67 C32.64,35.68 32.64,35.68 32.63,35.68 C32.6779313,35.7192369 32.7185554,35.7666316 32.75,35.82 L32.65,35.67 Z M32.65,35.67 C32.64,35.68 32.64,35.68 32.63,35.68 C32.6779313,35.7192369 32.7185554,35.7666316 32.75,35.82 L32.65,35.67 Z M29.1,37.72 C29.09,37.72 29.09,37.72 29.08,37.73 L29.16,37.89 C29.14,37.83 29.12,37.78 29.1,37.72 Z M24.84,22.11 C24.86,22.17 24.88,22.22 24.9,22.28 C24.91,22.28 24.91,22.28 24.92,22.27 L24.84,22.11 Z M21.25,24.18 L21.35,24.33 C21.36,24.32 21.36,24.32 21.37,24.32 C21.3220687,24.2807631 21.2814446,24.2333684 21.25,24.18 Z M21.25,24.18 L21.35,24.33 C21.36,24.32 21.36,24.32 21.37,24.32 C21.3220687,24.2807631 21.2814446,24.2333684 21.25,24.18 Z M24.84,22.11 C24.86,22.17 24.88,22.22 24.9,22.28 C24.91,22.28 24.91,22.28 24.92,22.27 L24.84,22.11 Z M29.1,37.72 C29.09,37.72 29.09,37.72 29.08,37.73 L29.16,37.89 C29.14,37.83 29.12,37.78 29.1,37.72 Z M32.65,35.67 C32.64,35.68 32.64,35.68 32.63,35.68 C32.6779313,35.7192369 32.7185554,35.7666316 32.75,35.82 L32.65,35.67 Z M32.65,35.67 C32.64,35.68 32.64,35.68 32.63,35.68 C32.6779313,35.7192369 32.7185554,35.7666316 32.75,35.82 L32.65,35.67 Z M29.1,37.72 C29.09,37.72 29.09,37.72 29.08,37.73 L29.16,37.89 C29.14,37.83 29.12,37.78 29.1,37.72 Z M24.84,22.11 C24.86,22.17 24.88,22.22 24.9,22.28 C24.91,22.28 24.91,22.28 24.92,22.27 L24.84,22.11 Z M21.25,24.18 L21.35,24.33 C21.36,24.32 21.36,24.32 21.37,24.32 C21.3220687,24.2807631 21.2814446,24.2333684 21.25,24.18 Z M21.25,24.18 L21.35,24.33 C21.36,24.32 21.36,24.32 21.37,24.32 C21.3220687,24.2807631 21.2814446,24.2333684 21.25,24.18 Z M24.84,22.11 C24.86,22.17 24.88,22.22 24.9,22.28 C24.91,22.28 24.91,22.28 24.92,22.27 L24.84,22.11 Z M29.1,37.72 C29.09,37.72 29.09,37.72 29.08,37.73 L29.16,37.89 C29.14,37.83 29.12,37.78 29.1,37.72 Z M32.65,35.67 C32.64,35.68 32.64,35.68 32.63,35.68 C32.6779313,35.7192369 32.7185554,35.7666316 32.75,35.82 L32.65,35.67 Z M32.65,35.67 C32.64,35.68 32.64,35.68 32.63,35.68 C32.6779313,35.7192369 32.7185554,35.7666316 32.75,35.82 L32.65,35.67 Z M29.08,37.73 L29.16,37.89 C29.14,37.83 29.12,37.78 29.1,37.72 C29.09,37.72 29.09,37.72 29.08,37.73 Z M24.9,22.28 C24.91,22.28 24.91,22.28 24.92,22.27 L24.84,22.11 C24.86,22.17 24.88,22.22 24.9,22.28 Z M21.35,24.33 C21.36,24.32 21.36,24.32 21.37,24.32 C21.3220687,24.2807631 21.2814446,24.2333684 21.25,24.18 L21.35,24.33 Z M32.65,35.67 C32.64,35.68 32.64,35.68 32.63,35.68 C32.6779313,35.7192369 32.7185554,35.7666316 32.75,35.82 L32.65,35.67 Z M29.08,37.73 L29.16,37.89 C29.14,37.83 29.12,37.78 29.1,37.72 C29.09,37.72 29.09,37.72 29.08,37.73 Z M24.9,22.28 C24.91,22.28 24.91,22.28 24.92,22.27 L24.84,22.11 C24.86,22.17 24.88,22.22 24.9,22.28 Z M21.35,24.33 C21.36,24.32 21.36,24.32 21.37,24.32 C21.3220687,24.2807631 21.2814446,24.2333684 21.25,24.18 L21.35,24.33 Z M21.25,24.18 L21.35,24.33 C21.36,24.32 21.36,24.32 21.37,24.32 C21.3220687,24.2807631 21.2814446,24.2333684 21.25,24.18 Z M24.84,22.11 C24.86,22.17 24.88,22.22 24.9,22.28 C24.91,22.28 24.91,22.28 24.92,22.27 L24.84,22.11 Z M29.1,37.72 C29.09,37.72 29.09,37.72 29.08,37.73 L29.16,37.89 C29.14,37.83 29.12,37.78 29.1,37.72 Z M32.65,35.67 C32.64,35.68 32.64,35.68 32.63,35.68 C32.6779313,35.7192369 32.7185554,35.7666316 32.75,35.82 L32.65,35.67 Z M32.65,35.67 C32.64,35.68 32.64,35.68 32.63,35.68 C32.6779313,35.7192369 32.7185554,35.7666316 32.75,35.82 L32.65,35.67 Z M29.1,37.72 C29.09,37.72 29.09,37.72 29.08,37.73 L29.16,37.89 C29.14,37.83 29.12,37.78 29.1,37.72 Z M24.84,22.11 C24.86,22.17 24.88,22.22 24.9,22.28 C24.91,22.28 24.91,22.28 24.92,22.27 L24.84,22.11 Z M21.25,24.18 L21.35,24.33 C21.36,24.32 21.36,24.32 21.37,24.32 C21.3220687,24.2807631 21.2814446,24.2333684 21.25,24.18 Z M21.25,24.18 L21.35,24.33 C21.36,24.32 21.36,24.32 21.37,24.32 C21.3220687,24.2807631 21.2814446,24.2333684 21.25,24.18 Z M24.84,22.11 C24.86,22.17 24.88,22.22 24.9,22.28 C24.91,22.28 24.91,22.28 24.92,22.27 L24.84,22.11 Z M29.1,37.72 C29.09,37.72 29.09,37.72 29.08,37.73 L29.16,37.89 C29.14,37.83 29.12,37.78 29.1,37.72 Z M32.65,35.67 C32.64,35.68 32.64,35.68 32.63,35.68 C32.6779313,35.7192369 32.7185554,35.7666316 32.75,35.82 L32.65,35.67 Z M32.65,35.67 C32.64,35.68 32.64,35.68 32.63,35.68 C32.6779313,35.7192369 32.7185554,35.7666316 32.75,35.82 L32.65,35.67 Z M29.1,37.72 C29.09,37.72 29.09,37.72 29.08,37.73 L29.16,37.89 C29.14,37.83 29.12,37.78 29.1,37.72 Z M24.84,22.11 C24.86,22.17 24.88,22.22 24.9,22.28 C24.91,22.28 24.91,22.28 24.92,22.27 L24.84,22.11 Z M21.25,24.18 L21.35,24.33 C21.36,24.32 21.36,24.32 21.37,24.32 C21.3220687,24.2807631 21.2814446,24.2333684 21.25,24.18 Z M21.25,24.18 L21.35,24.33 C21.36,24.32 21.36,24.32 21.37,24.32 C21.3220687,24.2807631 21.2814446,24.2333684 21.25,24.18 Z M24.84,22.11 C24.86,22.17 24.88,22.22 24.9,22.28 C24.91,22.28 24.91,22.28 24.92,22.27 L24.84,22.11 Z M32.65,35.67 C32.64,35.68 32.64,35.68 32.63,35.68 C32.6779313,35.7192369 32.7185554,35.7666316 32.75,35.82 L32.65,35.67 Z M32.65,35.67 C32.64,35.68 32.64,35.68 32.63,35.68 C32.6779313,35.7192369 32.7185554,35.7666316 32.75,35.82 L32.65,35.67 Z M24.84,22.11 C24.86,22.17 24.88,22.22 24.9,22.28 C24.91,22.28 24.91,22.28 24.92,22.27 L24.84,22.11 Z M21.25,24.18 L21.35,24.33 C21.36,24.32 21.36,24.32 21.37,24.32 C21.3220687,24.2807631 21.2814446,24.2333684 21.25,24.18 Z M21.25,24.18 L21.35,24.33 C21.36,24.32 21.36,24.32 21.37,24.32 C21.3220687,24.2807631 21.2814446,24.2333684 21.25,24.18 Z M24.84,22.11 C24.86,22.17 24.88,22.22 24.9,22.28 C24.91,22.28 24.91,22.28 24.92,22.27 L24.84,22.11 Z M24.84,22.11 C24.86,22.17 24.88,22.22 24.9,22.28 C24.91,22.28 24.91,22.28 24.92,22.27 L24.84,22.11 Z M21.25,24.18 L21.35,24.33 C21.36,24.32 21.36,24.32 21.37,24.32 C21.3220687,24.2807631 21.2814446,24.2333684 21.25,24.18 Z" id="Shape" fill="#283593"/><path d="M52.11,15.5 C47.1933807,6.97217869 38.2816319,1.52569143 28.45,1.04 C13.0478104,1.87603068 0.995217805,14.6226017 1.02184909,30.0474416 C1.04848037,45.4722814 13.1450154,58.1771585 28.55,58.96 C38.617788,58.4164026 47.681043,52.6837339 52.4861674,43.8199518 C57.2912918,34.9561697 57.1488588,24.2330267 52.11,15.5 Z M47.75,32.9 C47.0544258,37.2322208 44.7909458,41.1577215 41.39,43.93 C40.6432068,44.5518931 39.8434984,45.1073391 39,45.59 C38.1622354,46.0785027 37.2819783,46.4901819 36.37,46.82 C33.8636918,47.7777915 31.1734458,48.157229 28.5,47.93 C26.8338075,47.7827729 25.1954229,47.4093423 23.63,46.82 L23.61,46.81 C21.7935772,46.137277 20.1033099,45.163683 18.61,43.93 C15.2061211,41.1587029 12.9391505,37.2333206 12.24,32.9 L12.24,32.89 C11.9232644,30.9727153 11.9266435,29.0161792 12.25,27.1 C12.9455742,22.7677792 15.2090542,18.8422785 18.61,16.07 C19.3567932,15.4481069 20.1565016,14.8926609 21,14.41 C21.8377646,13.9214973 22.7180217,13.5098181 23.63,13.18 C27.7326536,11.6159339 32.2673464,11.6159339 36.37,13.18 L36.39,13.19 C38.2064228,13.862723 39.8966901,14.836317 41.39,16.07 C44.7938789,18.8412971 47.0608495,22.7666794 47.76,27.1 L47.76,27.11 C48.0767356,29.0272847 48.0733565,30.9838208 47.75,32.9 Z" id="Shape" fill="#3F51B5"/><path d="M38,30 C38,34.418278 34.418278,38 30,38 C29.4967634,37.99946 28.9946448,37.9525956 28.5,37.86 C24.7235972,37.1440687 21.9901007,33.843667 21.9901007,30 C21.9901007,26.156333 24.7235972,22.8559313 28.5,22.14 C28.9946448,22.0474044 29.4967634,22.00054 30,22 C34.418278,22 38,25.581722 38,30 Z" id="Shape" fill="#CFD8DC"/><ellipse id="Oval" fill="#F5F5F5" cx="28.5" cy="30" rx="6.5" ry="7.86"/><path d="M31.5,32.6 C30.7448881,33.0427121 29.8310382,33.1234539 29.01,32.82 C28.3312402,32.5893985 27.7591858,32.120385 27.4,31.5 C26.5747243,30.0636472 27.0665814,28.2303616 28.5,27.4 C28.6579636,27.3082948 28.8256682,27.2345048 29,27.18 C30.4554444,26.6812703 32.0522539,27.3644019 32.6966571,28.7614681 C33.3410604,30.1585344 32.8241519,31.8166281 31.5,32.6 Z" id="Shape" fill="#545C60"/><path d="M29.5,32.6 C29.3455033,32.691611 29.1811208,32.7654154 29.01,32.82 C28.3312402,32.5893985 27.7591858,32.120385 27.4,31.5 C26.5747243,30.0636472 27.0665814,28.2303616 28.5,27.4 C28.6579636,27.3082948 28.8256682,27.2345048 29,27.18 C29.6755822,27.4117301 30.2441093,27.880765 30.6,28.5 C31.4252757,29.9363528 30.9334186,31.7696384 29.5,32.6 Z" id="Shape" fill="#7F8E94"/><path d="M30.049,60.013 C27.4103023,60.0108522 24.7832654,59.6628892 22.235,58.978 C10.514955,55.8372212 1.84080231,45.9458624 0.257128349,33.9160692 C-1.32654562,21.886276 4.4921215,10.0869957 15,4.02 C25.5081898,-2.04699289 38.6363426,-1.18661685 48.2628311,6.19993678 C57.8893197,13.5864904 62.1183756,26.0445693 58.978,37.765 C55.4604227,50.859485 43.6076664,59.9749097 30.049,60.013 Z M29.954,1.988 C19.9578121,2.00836707 10.7300989,7.35443404 5.74029113,16.0161894 C0.750483396,24.6779447 0.754945582,35.3424233 5.752,44 C11.4146148,53.8072552 22.4272773,59.2378913 33.6550325,57.7597256 C44.8827877,56.2815599 54.1146456,48.1856755 57.046,37.247 C58.9882817,30.0752075 57.9807599,22.424451 54.248,16 C50.551019,9.55550588 44.4295493,4.85781797 37.248,2.954 C34.8693458,2.31454599 32.4171066,1.98977727 29.954,1.988 Z" id="Shape" fill="#000000"/><path d="M7,21.19 C6.66457919,21.1900621 6.35146746,21.0219572 6.16619937,20.7423452 C5.98093129,20.4627333 5.94818588,20.1088605 6.079,19.8 C8.27252017,14.6093145 12.1092445,10.2821528 17,7.483 C17.8402169,7.00442723 18.7050843,6.57049148 19.591,6.183 C20.0974451,5.96208613 20.6870861,6.19355491 20.908,6.70000002 C21.1289139,7.20644512 20.8974451,7.79608609 20.391,8.017 C19.5703366,8.3742651 18.7692101,8.77482832 17.991,9.217 C13.4803346,11.7998998 9.942488,15.7923614 7.921,20.581 C7.76405144,20.9504477 7.40140307,21.1902446 7,21.19 Z" id="Shape" fill="#000000"/><path d="M37.32,54.9 C36.824877,54.9003139 36.4040679,54.5382605 36.3304742,54.0486373 C36.2568805,53.5590141 36.5526622,53.0892523 37.026,52.944 C38.7588983,52.4100541 40.4271266,51.685277 42,50.783 C46.5137892,48.2013379 50.0548676,44.2087975 52.079,39.419 C52.2185122,39.0899584 52.5229684,38.8603403 52.8776829,38.8166406 C53.2323974,38.7729409 53.5834806,38.9217987 53.7986829,39.2071406 C54.0138852,39.4924825 54.0605122,39.8709584 53.921,40.2 C51.7274798,45.3906855 47.8907555,49.7178472 43,52.517 C41.2964216,53.492913 39.4901001,54.2773515 37.614,54.856 C37.5188573,54.8857483 37.4196832,54.9005906 37.32,54.9 Z" id="Shape" fill="#000000"/><path d="M30.032,49 C20.4980324,49.0146914 12.4305949,41.9590424 11.1751273,32.5080872 C9.91965961,23.0571319 15.8652663,14.139986 25.0724211,11.6651012 C34.2795759,9.19021648 43.8947238,13.9246289 47.5469207,22.7313429 C51.1991177,31.5380569 47.7564456,41.6876254 39.5,46.455 C36.6231127,48.122127 33.3570253,49.0000519 30.032,49 Z M29.971,13 C22.8280521,13.0126179 16.4548407,17.4890735 14.0195545,24.2040751 C11.5842683,30.9190766 13.6063903,38.4402136 19.080703,43.0286517 C24.5550157,47.6170899 32.3137661,48.2940467 38.5,44.723 C45.1687514,40.8734167 48.4172718,33.0221544 46.4180309,25.5861223 C44.4187901,18.1500902 37.6710878,12.986398 29.971,13 Z" id="Shape" fill="#000000"/><path d="M35.65,36.66 C35.2456041,36.6599137 34.8810659,36.4162725 34.726322,36.0426546 C34.5715781,35.6690366 34.6570921,35.2389943 34.943,34.953 C35.8153787,34.0792387 36.4435743,32.9921363 36.765,31.8 C36.8514671,31.4480337 37.121606,31.1704018 37.4710754,31.0743397 C37.8205449,30.9782776 38.1946372,31.0788234 38.448859,31.3371412 C38.7030809,31.595459 38.7976351,31.9711104 38.696,32.319 C38.2845964,33.8500138 37.4779786,35.2459902 36.357,36.367 C36.1695073,36.5545494 35.9151948,36.6599434 35.65,36.66 Z" id="Shape" fill="#000000"/><path d="M32.081,23.28 C31.9935208,23.2805204 31.9063809,23.2690812 31.822,23.246 C30.6292906,22.9255558 29.3736228,22.9217643 28.179,23.235 C27.8303878,23.3386823 27.4529695,23.2449144 27.1934153,22.9901358 C26.9338612,22.7353572 26.8331014,22.359745 26.9302928,22.0092677 C27.0274841,21.6587904 27.3073001,21.3887163 27.661,21.304 C29.1939882,20.8978019 30.8067628,20.9012502 32.338,21.314 C32.8225404,21.4436809 33.1360425,21.9122582 33.0710262,22.4096207 C33.0060098,22.9069831 32.5825934,23.2792287 32.081,23.28 Z" id="Shape" fill="#000000"/><path d="M24.35,36.66 C24.0882271,36.6599619 23.8369059,36.5572792 23.65,36.374 C23.0863587,35.8170623 22.6003205,35.1867262 22.205,34.5 C21.8101668,33.8154999 21.5075458,33.0818121 21.305,32.318 C21.2033649,31.9701104 21.2979191,31.594459 21.552141,31.3361412 C21.8063628,31.0778234 22.1804551,30.9772776 22.5299246,31.0733397 C22.879394,31.1694018 23.1495329,31.4470337 23.236,31.799 C23.3926509,32.3942894 23.6280631,32.9660048 23.936,33.499 C24.240879,34.0295986 24.615926,34.5166552 25.051,34.947 C25.3410407,35.2314128 25.4302107,35.66302 25.2766248,36.039086 C25.123039,36.4151519 24.7572194,36.6609408 24.351,36.661 L24.35,36.66 Z" id="Shape" fill="#000000"/><path d="M22.271,28.94 C22.1828669,28.9404545 22.0950753,28.929018 22.01,28.906 C21.4768546,28.7625709 21.1608212,28.2142127 21.304,27.681 C21.7154036,26.1499862 22.5220214,24.7540098 23.643,23.633 C23.8940745,23.3730434 24.2658779,23.2687874 24.6155073,23.3603028 C24.9651368,23.4518183 25.2381817,23.7248632 25.3296972,24.0744927 C25.4212126,24.4241221 25.3169566,24.7959255 25.057,25.047 C24.1846213,25.9207613 23.5564257,27.0078637 23.235,28.2 C23.1175966,28.6360243 22.7225531,28.9392735 22.271,28.94 Z" id="Shape" fill="#000000"/><path d="M37.729,28.94 C37.2774469,28.9392735 36.8824034,28.6360243 36.765,28.2 C36.6083491,27.6047106 36.3729369,27.0329952 36.065,26.5 C35.760121,25.9694014 35.385074,25.4823448 34.95,25.052 C34.5651121,24.6637236 34.5633866,24.0383219 34.9461262,23.6479276 C35.3288657,23.2575333 35.9541789,23.2468755 36.35,23.624 C36.9155482,24.1812368 37.4032856,24.812268 37.8,25.5 C38.1948332,26.1845001 38.4974542,26.9181879 38.7,27.682 C38.8431788,28.2152127 38.5271454,28.7635709 37.994,28.907 C37.9075983,28.9301022 37.8184288,28.9412063 37.729,28.94 Z" id="Shape" fill="#000000"/><path d="M30.031,39 C29.2311136,38.9996426 28.4347037,38.8947545 27.662,38.688 C27.1371514,38.5383706 26.8292052,37.9955606 26.9700313,37.4682816 C27.1108573,36.9410027 27.6484384,36.6240167 28.178,36.756 C29.3707094,37.0764442 30.6263772,37.0802357 31.821,36.767 C32.1696122,36.6633177 32.5470305,36.7570856 32.8065847,37.0118642 C33.0661388,37.2666428 33.1668986,37.642255 33.0697072,37.9927323 C32.9725159,38.3432096 32.6926999,38.6132837 32.339,38.698 C31.5861465,38.8989765 30.8102173,39.0005062 30.031,39 Z" id="Shape" fill="#000000"/><path d="M30.007,34 C28.0649362,34.0034462 26.4009957,32.611423 26.0614959,30.699261 C25.721996,28.787099 26.8050419,26.9073549 28.6295938,26.2420474 C30.4541457,25.5767398 32.4929635,26.3181225 33.464,28 C34.1779001,29.2365061 34.178578,30.7597878 33.4657786,31.9969288 C32.7529792,33.2340698 31.4347936,33.9974664 30.007,34 Z M30,28 C29.0949703,28.0008818 28.3033196,28.6094096 28.0697193,29.4837725 C27.836119,30.3581354 28.2187927,31.2804031 29.0027921,31.7325365 C29.7867914,32.18467 30.7767087,32.0539772 31.4165061,31.4138687 C32.0563034,30.7737601 32.1865147,29.7837794 31.734,29 C31.4706734,28.5395317 31.0337589,28.2038316 30.521,28.068 C30.351019,28.0228259 30.1758813,27.9999673 30,28 Z" id="Shape" fill="#000000"/><path d="M24.771,25.94 C24.4441607,25.9407004 24.1376054,25.7816352 23.95,25.514 L17.789,16.641 C17.58518,16.3475063 17.5534195,15.9675703 17.7056825,15.6443101 C17.8579455,15.32105 18.1710995,15.1035766 18.5271825,15.0738101 C18.8832655,15.0440437 19.22818,15.2065063 19.432,15.5 L25.064,23.615 L26.938,22.532 L22.726,13.606 C22.5608206,13.2812453 22.5853423,12.8923529 22.7900063,12.5909187 C22.9946703,12.2894846 23.3470827,12.1232193 23.7098679,12.1569354 C24.0726531,12.1906515 24.3883901,12.4190125 24.534,12.753 L29.134,22.521 C29.3512105,22.9906637 29.1742425,23.5484598 28.726,23.807 L25.266,25.807 C25.1153566,25.8935845 24.9447526,25.9394235 24.771,25.94 Z" id="Shape" fill="#000000"/><path d="M36.371,47.82 C35.9838482,47.8202897 35.6313138,47.5970828 35.466,47.247 L30.866,37.479 C30.6487895,37.0093363 30.8257575,36.4515402 31.274,36.193 L34.734,34.193 C35.1833669,33.93333 35.7566996,34.0605925 36.054,34.486 L42.215,43.359 C42.5300784,43.8138065 42.4168064,44.4379215 41.962,44.753 C41.5071935,45.0680784 40.8830785,44.9548065 40.568,44.5 L34.936,36.385 L33.062,37.468 L37.274,46.394 C37.4195038,46.7030058 37.3972335,47.0649025 37.21494,47.3537364 C37.0326466,47.6425702 36.7155455,47.8183886 36.374,47.82 L36.371,47.82 Z" id="Shape" fill="#000000"/><path d="M25.067,25.62 C24.4053948,25.6196227 23.7877412,25.2886564 23.421,24.738 L17.789,16.638 C17.5695103,16.3449676 17.527704,15.9554148 17.6800159,15.6224811 C17.8323278,15.2895474 18.1544048,15.0664655 18.5196332,15.0409324 C18.8848617,15.0153993 19.2348453,15.1914975 19.432,15.5 L25.073,23.613 L26.928,22.537 L22.728,13.607 C22.5628206,13.2822453 22.5873423,12.8933529 22.7920063,12.5919187 C22.9966703,12.2904846 23.3490827,12.1242193 23.7118679,12.1579354 C24.0746531,12.1916515 24.3903901,12.4200125 24.536,12.754 L28.746,21.685 C29.1912333,22.625889 28.8369853,23.7509424 27.933,24.267 L26.133,25.314 C26.1066399,25.3325171 26.0792638,25.3495438 26.051,25.365 C25.7501988,25.5327373 25.411408,25.6205337 25.067,25.62 Z" id="Shape" fill="#000000"/><path d="M36.371,47.82 C35.9838482,47.8202897 35.6313138,47.5970828 35.466,47.247 L31.256,38.316 C30.8102477,37.3751466 31.1646098,36.249731 32.069,35.734 L33.869,34.687 C33.8953601,34.6684829 33.9227362,34.6514562 33.951,34.636 C34.8548829,34.1247856 36.0000987,34.3978923 36.576,35.262 L42.208,43.362 C42.4816709,43.813803 42.3567508,44.4005352 41.9227724,44.7016738 C41.4887941,45.0028124 40.8954492,44.9144861 40.568,44.5 L34.927,36.387 L33.072,37.463 L37.272,46.393 C37.4175038,46.7020058 37.3952335,47.0639025 37.21294,47.3527364 C37.0306466,47.6415702 36.7135455,47.8173886 36.372,47.819 L36.371,47.82 Z" id="Shape" fill="#000000"/><path d="M12.24,33.9 C11.6877153,33.9 11.24,33.4522847 11.24,32.9 C11.2333422,32.6291077 11.339489,32.3676177 11.5330771,32.1780112 C11.7266653,31.9884048 11.9903045,31.8877147 12.261,31.9 L22,31.084 L22,28.92 L12.167,28.1 C11.6170742,28.0538697 11.2084719,27.5709759 11.254,27.021 C11.2716432,26.7551222 11.3964677,26.5077977 11.5998816,26.3356783 C11.8032955,26.1635588 12.0678692,26.0813925 12.333,26.108 L22.163,26.928 C23.203457,27.0130745 24.0034723,27.8840765 24,28.928 L24,31.088 C24.0040315,32.1273351 23.2113115,32.9965456 22.176,33.088 L12.323,33.909 C12.2951887,33.9075311 12.2674798,33.9045265 12.24,33.9 Z" id="Shape" fill="#000000"/><path d="M47.751,33.9 C47.7230193,33.901471 47.6949807,33.901471 47.667,33.9 L37.837,33.08 C36.796543,32.9949255 35.9965277,32.1239235 36,31.08 L36,28.92 C35.9959685,27.8806649 36.7886885,27.0114544 37.824,26.92 L47.677,26.099 C47.9556048,26.0736057 48.2318818,26.167758 48.437,26.358 C48.6431179,26.547599 48.7602847,26.8149424 48.76,27.095 C48.7501639,27.6513534 48.2954377,28.0967267 47.739,28.095 L38,28.916 L38,31.08 L47.833,31.904 C48.3852847,31.9266437 48.8146436,32.3927153 48.7919999,32.945 C48.7693563,33.4972847 48.3032847,33.9266436 47.751,33.904 L47.751,33.9 Z" id="Shape" fill="#000000"/><path d="M34.928,25.613 C34.5771037,25.6135928 34.232227,25.5218556 33.928,25.347 L32.066,24.265 C31.1630145,23.750141 30.8083976,22.6270423 31.252,21.687 L35.464,12.753 C35.5818601,12.503585 35.7975167,12.3139358 36.0599498,12.2289196 C36.3223828,12.1439034 36.6082786,12.1710728 36.85,12.304 C37.3347281,12.5716217 37.5132322,13.1798742 37.25,13.667 C37.236,13.693 37.221,13.718 37.205,13.742 L33.058,22.537 L34.926,23.616 L40.568,15.5 C40.8836307,15.0462981 41.5072981,14.9343693 41.961,15.25 C42.4147019,15.5656307 42.5266307,16.1892981 42.211,16.643 L36.571,24.752 C36.2001971,25.2939234 35.5846304,25.6165059 34.928,25.613 Z" id="Shape" fill="#000000"/><path d="M23.63,47.82 C23.4545518,47.8202964 23.2821135,47.7744278 23.13,47.687 L18.111,44.8 C17.8685016,44.6602684 17.6956575,44.4253086 17.6344611,44.1522053 C17.5732647,43.879102 17.629317,43.5928516 17.789,43.363 L23.424,35.25 C24.0205956,34.4014246 25.1643444,34.1451418 26.066,34.658 L27.934,35.737 C28.8289827,36.2619017 29.1787323,37.3808408 28.742,38.322 L24.534,47.251 C24.3694602,47.5994527 24.0193439,47.82236 23.634,47.824 L23.63,47.82 Z M20.053,43.606 L23.188,45.412 L26.934,37.465 L25.066,36.387 L20.053,43.606 Z" id="Shape" fill="#000000"/><circle id="Oval" fill="#000000" cx="23" cy="6" r="1"/></g></g></svg>
