<?xml version="1.0" encoding="UTF-8"?>
<svg xmlns="http://www.w3.org/2000/svg" xmlns:xlink="http://www.w3.org/1999/xlink" width="512" height="512" viewBox="0 0 60 60" version="1.1"><!-- Generator: Sketch 51.3 (57544) - http://www.bohemiancoding.com/sketch --><title>056 - Tyre</title><desc>Created with Sketch.</desc><defs/><g id="Page-1" stroke="none" stroke-width="1" fill="none" fill-rule="evenodd"><g id="056---Tyre" transform="translate(0.000000, -1.000000)" fill-rule="nonzero"><path d="M35.65,36.66 C35.7833333,36.53 35.9033333,36.4 36.01,36.27 C36.13,36.14 36.24,36 36.35,35.86 C36.44,35.74 36.53,35.62 36.61,35.5 C36.6490598,35.459821 36.6796634,35.4122153 36.7,35.36 C36.78,35.24 36.86,35.11 36.93,34.98 C37.2837985,34.3798878 37.5530092,33.7337821 37.73,33.06 C37.73,33.05 37.74,33.05 37.74,33.04 C37.7988468,33.0580762 37.8590359,33.0714516 37.92,33.08 L47.75,33.9 C48.0733565,31.9838208 48.0767356,30.0272847 47.76,28.11 L47.76,28.1 L37.92,28.92 C37.8590359,28.9285484 37.7988468,28.9419238 37.74,28.96 C37.74,28.95 37.73,28.95 37.73,28.94 C37.4350232,27.8291533 36.9028084,26.7954285 36.17,25.91 C36.0920721,25.8088021 36.0086116,25.7119878 35.92,25.62 C35.9086836,25.5987266 35.8912734,25.5813164 35.87,25.57 C35.8018564,25.4885321 35.7283603,25.4116953 35.65,25.34 C35.64,25.32 35.64,25.32 35.63,25.32 C35.6779313,25.2807631 35.7185554,25.2333684 35.75,25.18 L41.39,17.07 C39.8966901,15.836317 38.2064228,14.862723 36.39,14.19 L36.37,14.18 L32.16,23.11 C32.14,23.17 32.12,23.22 32.1,23.28 L32.08,23.28 C31.7343297,23.1898661 31.3837472,23.1197496 31.03,23.07 C30.86,23.05 30.68,23.03 30.5,23.02 C30.34,23.01 30.17,23 30,23 C29.81,23 29.62,23.01 29.44,23.02 C29.28,23.03 29.11,23.05 28.94,23.07 C28.5961819,23.1154527 28.2555242,23.1822484 27.92,23.27 C27.91,23.28 27.91,23.28 27.9,23.28 C27.88,23.22 27.86,23.17 27.84,23.11 L23.63,14.18 C22.7180217,14.5098181 21.8377646,14.9214973 21,15.41 C20.1565016,15.8926609 19.3567932,16.4481069 18.61,17.07 L24.25,25.18 C24.2814446,25.2333684 24.3220687,25.2807631 24.37,25.32 C24.36,25.32 24.36,25.32 24.35,25.33 L24.35,25.34 C24.2166667,25.47 24.0966667,25.6 23.99,25.73 C23.87,25.86 23.76,26 23.65,26.14 C23.56,26.26 23.47,26.38 23.39,26.5 C23.3509402,26.540179 23.3203366,26.5877847 23.3,26.64 C23.22,26.76 23.14,26.89 23.07,27.02 C22.7162015,27.6201122 22.4469908,28.2662179 22.27,28.94 C22.27,28.95 22.26,28.95 22.26,28.96 C22.2011532,28.9419238 22.1409641,28.9285484 22.08,28.92 L12.25,28.1 C11.9266435,30.0161792 11.9232644,31.9727153 12.24,33.89 L12.24,33.9 L22.08,33.08 C22.1409641,33.0714516 22.2011532,33.0580762 22.26,33.04 C22.26,33.05 22.27,33.05 22.27,33.06 C22.5649768,34.1708467 23.0971916,35.2045715 23.83,36.09 C23.9079279,36.1911979 23.9913884,36.2880122 24.08,36.38 C24.0913164,36.4012734 24.1087266,36.4186836 24.13,36.43 C24.1981436,36.5114679 24.2716397,36.5883047 24.35,36.66 C24.36,36.68 24.36,36.68 24.37,36.68 C24.3220687,36.7192369 24.2814446,36.7666316 24.25,36.82 L18.61,44.93 C20.1033099,46.163683 21.7935772,47.137277 23.61,47.81 L23.63,47.82 L27.84,38.89 C27.86,38.83 27.88,38.78 27.9,38.72 L27.92,38.72 C28.2656703,38.8101339 28.6162528,38.8802504 28.97,38.93 C29.14,38.95 29.32,38.97 29.5,38.98 C29.66,38.99 29.83,39 30,39 C30.19,39 30.38,38.99 30.56,38.98 C30.72,38.97 30.89,38.95 31.06,38.93 C31.4038181,38.8845473 31.7444758,38.8177516 32.08,38.73 C32.09,38.72 32.09,38.72 32.1,38.72 C32.12,38.78 32.14,38.83 32.16,38.89 L36.37,47.82 C37.2819783,47.4901819 38.1622354,47.0785027 39,46.59 C39.8434984,46.1073391 40.6432068,45.5518931 41.39,44.93 L35.75,36.82 C35.7185554,36.7666316 35.6779313,36.7192369 35.63,36.68 C35.64,36.68 35.64,36.68 35.65,36.67 L35.65,36.66 Z M31.5,33.6 C30.0647729,34.4269532 28.2309269,33.9342176 27.4034422,32.4992969 C26.5759574,31.0643762 27.0680138,29.2303478 28.502628,28.4023317 C29.9372421,27.5743156 31.7714526,28.0656927 32.6,29.5 C33.4252757,30.9363528 32.9334186,32.7696384 31.5,33.6 Z" id="Shape" fill="#E8EDFC"/><path d="M24.25,25.18 L24.35,25.33 C24.36,25.32 24.36,25.32 24.37,25.32 C24.3220687,25.2807631 24.2814446,25.2333684 24.25,25.18 Z M24.25,25.18 L24.35,25.33 C24.36,25.32 24.36,25.32 24.37,25.32 C24.3220687,25.2807631 24.2814446,25.2333684 24.25,25.18 Z M24.25,25.18 L24.35,25.33 C24.36,25.32 24.36,25.32 24.37,25.32 C24.3220687,25.2807631 24.2814446,25.2333684 24.25,25.18 Z M27.84,23.11 C27.86,23.17 27.88,23.22 27.9,23.28 C27.91,23.28 27.91,23.28 27.92,23.27 L27.84,23.11 Z M27.84,23.11 C27.86,23.17 27.88,23.22 27.9,23.28 C27.91,23.28 27.91,23.28 27.92,23.27 L27.84,23.11 Z M24.25,25.18 L24.35,25.33 C24.36,25.32 24.36,25.32 24.37,25.32 C24.3220687,25.2807631 24.2814446,25.2333684 24.25,25.18 Z M24.25,25.18 L24.35,25.33 C24.36,25.32 24.36,25.32 24.37,25.32 C24.3220687,25.2807631 24.2814446,25.2333684 24.25,25.18 Z M27.84,23.11 C27.86,23.17 27.88,23.22 27.9,23.28 C27.91,23.28 27.91,23.28 27.92,23.27 L27.84,23.11 Z M32.1,38.72 C32.09,38.72 32.09,38.72 32.08,38.73 L32.16,38.89 C32.14,38.83 32.12,38.78 32.1,38.72 Z M35.65,36.67 C35.64,36.68 35.64,36.68 35.63,36.68 C35.6779313,36.7192369 35.7185554,36.7666316 35.75,36.82 L35.65,36.67 Z M35.65,36.67 C35.64,36.68 35.64,36.68 35.63,36.68 C35.6779313,36.7192369 35.7185554,36.7666316 35.75,36.82 L35.65,36.67 Z M32.1,38.72 C32.09,38.72 32.09,38.72 32.08,38.73 L32.16,38.89 C32.14,38.83 32.12,38.78 32.1,38.72 Z M27.84,23.11 C27.86,23.17 27.88,23.22 27.9,23.28 C27.91,23.28 27.91,23.28 27.92,23.27 L27.84,23.11 Z M24.25,25.18 L24.35,25.33 C24.36,25.32 24.36,25.32 24.37,25.32 C24.3220687,25.2807631 24.2814446,25.2333684 24.25,25.18 Z M24.25,25.18 L24.35,25.33 C24.36,25.32 24.36,25.32 24.37,25.32 C24.3220687,25.2807631 24.2814446,25.2333684 24.25,25.18 Z M27.84,23.11 C27.86,23.17 27.88,23.22 27.9,23.28 C27.91,23.28 27.91,23.28 27.92,23.27 L27.84,23.11 Z M32.1,38.72 C32.09,38.72 32.09,38.72 32.08,38.73 L32.16,38.89 C32.14,38.83 32.12,38.78 32.1,38.72 Z M35.65,36.67 C35.64,36.68 35.64,36.68 35.63,36.68 C35.6779313,36.7192369 35.7185554,36.7666316 35.75,36.82 L35.65,36.67 Z M35.65,36.67 C35.64,36.68 35.64,36.68 35.63,36.68 C35.6779313,36.7192369 35.7185554,36.7666316 35.75,36.82 L35.65,36.67 Z M32.1,38.72 C32.09,38.72 32.09,38.72 32.08,38.73 L32.16,38.89 C32.14,38.83 32.12,38.78 32.1,38.72 Z M27.84,23.11 C27.86,23.17 27.88,23.22 27.9,23.28 C27.91,23.28 27.91,23.28 27.92,23.27 L27.84,23.11 Z M24.25,25.18 L24.35,25.33 C24.36,25.32 24.36,25.32 24.37,25.32 C24.3220687,25.2807631 24.2814446,25.2333684 24.25,25.18 Z M24.25,25.18 L24.35,25.33 C24.36,25.32 24.36,25.32 24.37,25.32 C24.3220687,25.2807631 24.2814446,25.2333684 24.25,25.18 Z M27.84,23.11 C27.86,23.17 27.88,23.22 27.9,23.28 C27.91,23.28 27.91,23.28 27.92,23.27 L27.84,23.11 Z M32.1,38.72 C32.09,38.72 32.09,38.72 32.08,38.73 L32.16,38.89 C32.14,38.83 32.12,38.78 32.1,38.72 Z M35.65,36.67 C35.64,36.68 35.64,36.68 35.63,36.68 C35.6779313,36.7192369 35.7185554,36.7666316 35.75,36.82 L35.65,36.67 Z M35.65,36.67 C35.64,36.68 35.64,36.68 35.63,36.68 C35.6779313,36.7192369 35.7185554,36.7666316 35.75,36.82 L35.65,36.67 Z M32.08,38.73 L32.16,38.89 C32.14,38.83 32.12,38.78 32.1,38.72 C32.09,38.72 32.09,38.72 32.08,38.73 Z M27.9,23.28 C27.91,23.28 27.91,23.28 27.92,23.27 L27.84,23.11 C27.86,23.17 27.88,23.22 27.9,23.28 Z M24.35,25.33 C24.36,25.32 24.36,25.32 24.37,25.32 C24.3220687,25.2807631 24.2814446,25.2333684 24.25,25.18 L24.35,25.33 Z M55.11,16.5 C49.65581,7.04373522 39.3507441,1.45441592 28.45,2.04 C43.8549846,2.8228415 55.9515196,15.5277186 55.9781509,30.9525584 C56.0047822,46.3773983 43.9521896,59.1239693 28.55,59.96 C39.1549971,60.4883105 49.2007967,55.1785994 54.7377989,46.1184294 C60.2748012,37.0582593 60.4175798,25.6964489 55.11,16.5 Z M35.63,36.68 C35.6779313,36.7192369 35.7185554,36.7666316 35.75,36.82 L35.65,36.67 C35.64,36.68 35.64,36.68 35.63,36.68 Z M32.08,38.73 L32.16,38.89 C32.14,38.83 32.12,38.78 32.1,38.72 C32.09,38.72 32.09,38.72 32.08,38.73 Z M27.9,23.28 C27.91,23.28 27.91,23.28 27.92,23.27 L27.84,23.11 C27.86,23.17 27.88,23.22 27.9,23.28 Z M24.35,25.33 C24.36,25.32 24.36,25.32 24.37,25.32 C24.3220687,25.2807631 24.2814446,25.2333684 24.25,25.18 L24.35,25.33 Z M24.25,25.18 L24.35,25.33 C24.36,25.32 24.36,25.32 24.37,25.32 C24.3220687,25.2807631 24.2814446,25.2333684 24.25,25.18 Z M27.84,23.11 C27.86,23.17 27.88,23.22 27.9,23.28 C27.91,23.28 27.91,23.28 27.92,23.27 L27.84,23.11 Z M32.1,38.72 C32.09,38.72 32.09,38.72 32.08,38.73 L32.16,38.89 C32.14,38.83 32.12,38.78 32.1,38.72 Z M35.65,36.67 C35.64,36.68 35.64,36.68 35.63,36.68 C35.6779313,36.7192369 35.7185554,36.7666316 35.75,36.82 L35.65,36.67 Z M35.65,36.67 C35.64,36.68 35.64,36.68 35.63,36.68 C35.6779313,36.7192369 35.7185554,36.7666316 35.75,36.82 L35.65,36.67 Z M32.1,38.72 C32.09,38.72 32.09,38.72 32.08,38.73 L32.16,38.89 C32.14,38.83 32.12,38.78 32.1,38.72 Z M27.84,23.11 C27.86,23.17 27.88,23.22 27.9,23.28 C27.91,23.28 27.91,23.28 27.92,23.27 L27.84,23.11 Z M24.25,25.18 L24.35,25.33 C24.36,25.32 24.36,25.32 24.37,25.32 C24.3220687,25.2807631 24.2814446,25.2333684 24.25,25.18 Z M24.25,25.18 L24.35,25.33 C24.36,25.32 24.36,25.32 24.37,25.32 C24.3220687,25.2807631 24.2814446,25.2333684 24.25,25.18 Z M27.84,23.11 C27.86,23.17 27.88,23.22 27.9,23.28 C27.91,23.28 27.91,23.28 27.92,23.27 L27.84,23.11 Z M32.1,38.72 C32.09,38.72 32.09,38.72 32.08,38.73 L32.16,38.89 C32.14,38.83 32.12,38.78 32.1,38.72 Z M35.65,36.67 C35.64,36.68 35.64,36.68 35.63,36.68 C35.6779313,36.7192369 35.7185554,36.7666316 35.75,36.82 L35.65,36.67 Z M35.65,36.67 C35.64,36.68 35.64,36.68 35.63,36.68 C35.6779313,36.7192369 35.7185554,36.7666316 35.75,36.82 L35.65,36.67 Z M32.1,38.72 C32.09,38.72 32.09,38.72 32.08,38.73 L32.16,38.89 C32.14,38.83 32.12,38.78 32.1,38.72 Z M27.84,23.11 C27.86,23.17 27.88,23.22 27.9,23.28 C27.91,23.28 27.91,23.28 27.92,23.27 L27.84,23.11 Z M24.25,25.18 L24.35,25.33 C24.36,25.32 24.36,25.32 24.37,25.32 C24.3220687,25.2807631 24.2814446,25.2333684 24.25,25.18 Z M24.25,25.18 L24.35,25.33 C24.36,25.32 24.36,25.32 24.37,25.32 C24.3220687,25.2807631 24.2814446,25.2333684 24.25,25.18 Z M27.84,23.11 C27.86,23.17 27.88,23.22 27.9,23.28 C27.91,23.28 27.91,23.28 27.92,23.27 L27.84,23.11 Z M35.65,36.67 C35.64,36.68 35.64,36.68 35.63,36.68 C35.6779313,36.7192369 35.7185554,36.7666316 35.75,36.82 L35.65,36.67 Z M35.65,36.67 C35.64,36.68 35.64,36.68 35.63,36.68 C35.6779313,36.7192369 35.7185554,36.7666316 35.75,36.82 L35.65,36.67 Z M27.84,23.11 C27.86,23.17 27.88,23.22 27.9,23.28 C27.91,23.28 27.91,23.28 27.92,23.27 L27.84,23.11 Z M24.25,25.18 L24.35,25.33 C24.36,25.32 24.36,25.32 24.37,25.32 C24.3220687,25.2807631 24.2814446,25.2333684 24.25,25.18 Z M24.25,25.18 L24.35,25.33 C24.36,25.32 24.36,25.32 24.37,25.32 C24.3220687,25.2807631 24.2814446,25.2333684 24.25,25.18 Z M27.84,23.11 C27.86,23.17 27.88,23.22 27.9,23.28 C27.91,23.28 27.91,23.28 27.92,23.27 L27.84,23.11 Z M27.84,23.11 C27.86,23.17 27.88,23.22 27.9,23.28 C27.91,23.28 27.91,23.28 27.92,23.27 L27.84,23.11 Z M24.25,25.18 L24.35,25.33 C24.36,25.32 24.36,25.32 24.37,25.32 C24.3220687,25.2807631 24.2814446,25.2333684 24.25,25.18 Z" id="Shape" fill="#CAD9FC"/><path d="M21.25,25.18 L21.35,25.33 C21.36,25.32 21.36,25.32 21.37,25.32 C21.3220687,25.2807631 21.2814446,25.2333684 21.25,25.18 Z M21.25,25.18 L21.35,25.33 C21.36,25.32 21.36,25.32 21.37,25.32 C21.3220687,25.2807631 21.2814446,25.2333684 21.25,25.18 Z M21.25,25.18 L21.35,25.33 C21.36,25.32 21.36,25.32 21.37,25.32 C21.3220687,25.2807631 21.2814446,25.2333684 21.25,25.18 Z M24.84,23.11 C24.86,23.17 24.88,23.22 24.9,23.28 C24.91,23.28 24.91,23.28 24.92,23.27 L24.84,23.11 Z M24.84,23.11 C24.86,23.17 24.88,23.22 24.9,23.28 C24.91,23.28 24.91,23.28 24.92,23.27 L24.84,23.11 Z M21.25,25.18 L21.35,25.33 C21.36,25.32 21.36,25.32 21.37,25.32 C21.3220687,25.2807631 21.2814446,25.2333684 21.25,25.18 Z M21.25,25.18 L21.35,25.33 C21.36,25.32 21.36,25.32 21.37,25.32 C21.3220687,25.2807631 21.2814446,25.2333684 21.25,25.18 Z M24.84,23.11 C24.86,23.17 24.88,23.22 24.9,23.28 C24.91,23.28 24.91,23.28 24.92,23.27 L24.84,23.11 Z M29.1,38.72 C29.09,38.72 29.09,38.72 29.08,38.73 L29.16,38.89 C29.14,38.83 29.12,38.78 29.1,38.72 Z M32.65,36.67 C32.64,36.68 32.64,36.68 32.63,36.68 C32.6779313,36.7192369 32.7185554,36.7666316 32.75,36.82 L32.65,36.67 Z M32.65,36.67 C32.64,36.68 32.64,36.68 32.63,36.68 C32.6779313,36.7192369 32.7185554,36.7666316 32.75,36.82 L32.65,36.67 Z M29.1,38.72 C29.09,38.72 29.09,38.72 29.08,38.73 L29.16,38.89 C29.14,38.83 29.12,38.78 29.1,38.72 Z M24.84,23.11 C24.86,23.17 24.88,23.22 24.9,23.28 C24.91,23.28 24.91,23.28 24.92,23.27 L24.84,23.11 Z M21.25,25.18 L21.35,25.33 C21.36,25.32 21.36,25.32 21.37,25.32 C21.3220687,25.2807631 21.2814446,25.2333684 21.25,25.18 Z M21.25,25.18 L21.35,25.33 C21.36,25.32 21.36,25.32 21.37,25.32 C21.3220687,25.2807631 21.2814446,25.2333684 21.25,25.18 Z M24.84,23.11 C24.86,23.17 24.88,23.22 24.9,23.28 C24.91,23.28 24.91,23.28 24.92,23.27 L24.84,23.11 Z M29.1,38.72 C29.09,38.72 29.09,38.72 29.08,38.73 L29.16,38.89 C29.14,38.83 29.12,38.78 29.1,38.72 Z M32.65,36.67 C32.64,36.68 32.64,36.68 32.63,36.68 C32.6779313,36.7192369 32.7185554,36.7666316 32.75,36.82 L32.65,36.67 Z M32.65,36.67 C32.64,36.68 32.64,36.68 32.63,36.68 C32.6779313,36.7192369 32.7185554,36.7666316 32.75,36.82 L32.65,36.67 Z M29.1,38.72 C29.09,38.72 29.09,38.72 29.08,38.73 L29.16,38.89 C29.14,38.83 29.12,38.78 29.1,38.72 Z M24.84,23.11 C24.86,23.17 24.88,23.22 24.9,23.28 C24.91,23.28 24.91,23.28 24.92,23.27 L24.84,23.11 Z M21.25,25.18 L21.35,25.33 C21.36,25.32 21.36,25.32 21.37,25.32 C21.3220687,25.2807631 21.2814446,25.2333684 21.25,25.18 Z M21.25,25.18 L21.35,25.33 C21.36,25.32 21.36,25.32 21.37,25.32 C21.3220687,25.2807631 21.2814446,25.2333684 21.25,25.18 Z M24.84,23.11 C24.86,23.17 24.88,23.22 24.9,23.28 C24.91,23.28 24.91,23.28 24.92,23.27 L24.84,23.11 Z M29.1,38.72 C29.09,38.72 29.09,38.72 29.08,38.73 L29.16,38.89 C29.14,38.83 29.12,38.78 29.1,38.72 Z M32.65,36.67 C32.64,36.68 32.64,36.68 32.63,36.68 C32.6779313,36.7192369 32.7185554,36.7666316 32.75,36.82 L32.65,36.67 Z M32.65,36.67 C32.64,36.68 32.64,36.68 32.63,36.68 C32.6779313,36.7192369 32.7185554,36.7666316 32.75,36.82 L32.65,36.67 Z M29.08,38.73 L29.16,38.89 C29.14,38.83 29.12,38.78 29.1,38.72 C29.09,38.72 29.09,38.72 29.08,38.73 Z M24.9,23.28 C24.91,23.28 24.91,23.28 24.92,23.27 L24.84,23.11 C24.86,23.17 24.88,23.22 24.9,23.28 Z M21.35,25.33 C21.36,25.32 21.36,25.32 21.37,25.32 C21.3220687,25.2807631 21.2814446,25.2333684 21.25,25.18 L21.35,25.33 Z M32.65,36.67 C32.64,36.68 32.64,36.68 32.63,36.68 C32.6779313,36.7192369 32.7185554,36.7666316 32.75,36.82 L32.65,36.67 Z M29.08,38.73 L29.16,38.89 C29.14,38.83 29.12,38.78 29.1,38.72 C29.09,38.72 29.09,38.72 29.08,38.73 Z M24.9,23.28 C24.91,23.28 24.91,23.28 24.92,23.27 L24.84,23.11 C24.86,23.17 24.88,23.22 24.9,23.28 Z M21.35,25.33 C21.36,25.32 21.36,25.32 21.37,25.32 C21.3220687,25.2807631 21.2814446,25.2333684 21.25,25.18 L21.35,25.33 Z M21.25,25.18 L21.35,25.33 C21.36,25.32 21.36,25.32 21.37,25.32 C21.3220687,25.2807631 21.2814446,25.2333684 21.25,25.18 Z M24.84,23.11 C24.86,23.17 24.88,23.22 24.9,23.28 C24.91,23.28 24.91,23.28 24.92,23.27 L24.84,23.11 Z M29.1,38.72 C29.09,38.72 29.09,38.72 29.08,38.73 L29.16,38.89 C29.14,38.83 29.12,38.78 29.1,38.72 Z M32.65,36.67 C32.64,36.68 32.64,36.68 32.63,36.68 C32.6779313,36.7192369 32.7185554,36.7666316 32.75,36.82 L32.65,36.67 Z M32.65,36.67 C32.64,36.68 32.64,36.68 32.63,36.68 C32.6779313,36.7192369 32.7185554,36.7666316 32.75,36.82 L32.65,36.67 Z M29.1,38.72 C29.09,38.72 29.09,38.72 29.08,38.73 L29.16,38.89 C29.14,38.83 29.12,38.78 29.1,38.72 Z M24.84,23.11 C24.86,23.17 24.88,23.22 24.9,23.28 C24.91,23.28 24.91,23.28 24.92,23.27 L24.84,23.11 Z M21.25,25.18 L21.35,25.33 C21.36,25.32 21.36,25.32 21.37,25.32 C21.3220687,25.2807631 21.2814446,25.2333684 21.25,25.18 Z M21.25,25.18 L21.35,25.33 C21.36,25.32 21.36,25.32 21.37,25.32 C21.3220687,25.2807631 21.2814446,25.2333684 21.25,25.18 Z M24.84,23.11 C24.86,23.17 24.88,23.22 24.9,23.28 C24.91,23.28 24.91,23.28 24.92,23.27 L24.84,23.11 Z M29.1,38.72 C29.09,38.72 29.09,38.72 29.08,38.73 L29.16,38.89 C29.14,38.83 29.12,38.78 29.1,38.72 Z M32.65,36.67 C32.64,36.68 32.64,36.68 32.63,36.68 C32.6779313,36.7192369 32.7185554,36.7666316 32.75,36.82 L32.65,36.67 Z M32.65,36.67 C32.64,36.68 32.64,36.68 32.63,36.68 C32.6779313,36.7192369 32.7185554,36.7666316 32.75,36.82 L32.65,36.67 Z M29.1,38.72 C29.09,38.72 29.09,38.72 29.08,38.73 L29.16,38.89 C29.14,38.83 29.12,38.78 29.1,38.72 Z M24.84,23.11 C24.86,23.17 24.88,23.22 24.9,23.28 C24.91,23.28 24.91,23.28 24.92,23.27 L24.84,23.11 Z M21.25,25.18 L21.35,25.33 C21.36,25.32 21.36,25.32 21.37,25.32 C21.3220687,25.2807631 21.2814446,25.2333684 21.25,25.18 Z M21.25,25.18 L21.35,25.33 C21.36,25.32 21.36,25.32 21.37,25.32 C21.3220687,25.2807631 21.2814446,25.2333684 21.25,25.18 Z M24.84,23.11 C24.86,23.17 24.88,23.22 24.9,23.28 C24.91,23.28 24.91,23.28 24.92,23.27 L24.84,23.11 Z M32.65,36.67 C32.64,36.68 32.64,36.68 32.63,36.68 C32.6779313,36.7192369 32.7185554,36.7666316 32.75,36.82 L32.65,36.67 Z M32.65,36.67 C32.64,36.68 32.64,36.68 32.63,36.68 C32.6779313,36.7192369 32.7185554,36.7666316 32.75,36.82 L32.65,36.67 Z M24.84,23.11 C24.86,23.17 24.88,23.22 24.9,23.28 C24.91,23.28 24.91,23.28 24.92,23.27 L24.84,23.11 Z M21.25,25.18 L21.35,25.33 C21.36,25.32 21.36,25.32 21.37,25.32 C21.3220687,25.2807631 21.2814446,25.2333684 21.25,25.18 Z M21.25,25.18 L21.35,25.33 C21.36,25.32 21.36,25.32 21.37,25.32 C21.3220687,25.2807631 21.2814446,25.2333684 21.25,25.18 Z M24.84,23.11 C24.86,23.17 24.88,23.22 24.9,23.28 C24.91,23.28 24.91,23.28 24.92,23.27 L24.84,23.11 Z M24.84,23.11 C24.86,23.17 24.88,23.22 24.9,23.28 C24.91,23.28 24.91,23.28 24.92,23.27 L24.84,23.11 Z M21.25,25.18 L21.35,25.33 C21.36,25.32 21.36,25.32 21.37,25.32 C21.3220687,25.2807631 21.2814446,25.2333684 21.25,25.18 Z" id="Shape" fill="#CAD9FC"/><path d="M52.11,16.5 C47.1933807,7.97217869 38.2816319,2.52569143 28.45,2.04 C13.0478104,2.87603068 0.995217805,15.6226017 1.02184909,31.0474416 C1.04848037,46.4722814 13.1450154,59.1771585 28.55,59.96 C38.617788,59.4164026 47.681043,53.6837339 52.4861674,44.8199518 C57.2912918,35.9561697 57.1488588,25.2330267 52.11,16.5 Z M47.75,33.9 C47.0544258,38.2322208 44.7909458,42.1577215 41.39,44.93 C40.6432068,45.5518931 39.8434984,46.1073391 39,46.59 C38.1622354,47.0785027 37.2819783,47.4901819 36.37,47.82 C33.8636918,48.7777915 31.1734458,49.157229 28.5,48.93 C26.8338075,48.7827729 25.1954229,48.4093423 23.63,47.82 L23.61,47.81 C21.7935772,47.137277 20.1033099,46.163683 18.61,44.93 C15.2061211,42.1587029 12.9391505,38.2333206 12.24,33.9 L12.24,33.89 C11.9232644,31.9727153 11.9266435,30.0161792 12.25,28.1 C12.9455742,23.7677792 15.2090542,19.8422785 18.61,17.07 C19.3567932,16.4481069 20.1565016,15.8926609 21,15.41 C21.8377646,14.9214973 22.7180217,14.5098181 23.63,14.18 C27.7326536,12.6159339 32.2673464,12.6159339 36.37,14.18 L36.39,14.19 C38.2064228,14.862723 39.8966901,15.836317 41.39,17.07 C44.7938789,19.8412971 47.0608495,23.7666794 47.76,28.1 L47.76,28.11 C48.0767356,30.0272847 48.0733565,31.9838208 47.75,33.9 Z" id="Shape" fill="#E8EDFC"/><path d="M38,31 C38,35.418278 34.418278,39 30,39 C29.4967634,38.99946 28.9946448,38.9525956 28.5,38.86 C24.7235972,38.1440687 21.9901007,34.843667 21.9901007,31 C21.9901007,27.156333 24.7235972,23.8559313 28.5,23.14 C28.9946448,23.0474044 29.4967634,23.00054 30,23 C34.418278,23 38,26.581722 38,31 Z" id="Shape" fill="#CAD9FC"/><ellipse id="Oval" fill="#E8EDFC" cx="28.5" cy="31" rx="6.5" ry="7.86"/><path d="M31.5,33.6 C30.7448881,34.0427121 29.8310382,34.1234539 29.01,33.82 C28.3312402,33.5893985 27.7591858,33.120385 27.4,32.5 C26.5747243,31.0636472 27.0665814,29.2303616 28.5,28.4 C28.6579636,28.3082948 28.8256682,28.2345048 29,28.18 C30.4554444,27.6812703 32.0522539,28.3644019 32.6966571,29.7614681 C33.3410604,31.1585344 32.8241519,32.8166281 31.5,33.6 Z" id="Shape" fill="#7FACFA"/><path d="M29.5,33.6 C29.3455033,33.691611 29.1811208,33.7654154 29.01,33.82 C28.3312402,33.5893985 27.7591858,33.120385 27.4,32.5 C26.5747243,31.0636472 27.0665814,29.2303616 28.5,28.4 C28.6579636,28.3082948 28.8256682,28.2345048 29,28.18 C29.6755822,28.4117301 30.2441093,28.880765 30.6,29.5 C31.4252757,30.9363528 30.9334186,32.7696384 29.5,33.6 Z" id="Shape" fill="#A4C2F7"/><path d="M4.89,45.5 C9.80661927,54.0278213 18.7183681,59.4743086 28.55,59.96 C29.501,60.009 30.457,59.994 31.413,59.949 C16.0832462,59.0650727 4.09964951,46.3848525 4.08241137,31.0296455 C4.06517322,15.6744385 16.0202695,2.9673442 31.348,2.049 C30.385,2.004 29.418,1.99 28.448,2.041 C18.3808812,2.58543242 9.3185708,8.31821553 4.51397321,17.1815743 C-0.290624373,26.0449331 -0.148246682,36.7673396 4.89,45.5 Z" id="Shape" fill="#FFFFFF"/><path d="M4.019,46 C1.78267937,42.0950314 0.447781552,37.7394447 0.112,33.252 C0.00468120861,31.8545118 -0.0103514155,30.4514668 0.067,29.052 C0.123,28.352 0.224,27.659 0.301,26.962 C0.371702786,26.2642585 0.492345466,25.5724847 0.662,24.892 C1.21866231,22.137175 2.17475599,19.4784395 3.5,17 C4.79872217,14.5100416 6.44896466,12.2199092 8.4,10.2 C10.3618801,8.18948481 12.5811354,6.44736938 15,5.019 L16,6.751 C13.7444601,8.08679374 11.6743796,9.71340563 9.843,11.589 C8.02082543,13.4730878 6.47935106,15.6096649 5.266,17.933 C4.02877559,20.2461881 3.13729984,22.7282372 2.62,25.3 C2.45940227,25.9349815 2.34675172,26.5811344 2.283,27.233 C2.212,27.884 2.115,28.533 2.062,29.184 C1.9917724,30.4889219 2.00680436,31.7970365 2.107,33.1 C2.41928638,37.288733 3.6643345,41.3546147 5.751,45 L4.019,46 Z" id="Shape" fill="#FFFFFF"/><path d="M1.411,38.979 L1.589,39.056 C1.65349476,39.0783634 1.72082814,39.0914935 1.789,39.095 C1.85159018,39.1070397 1.91561927,39.1097357 1.979,39.103 C2.04641365,39.0956027 2.11323822,39.0835743 2.179,39.067 C2.43142257,38.9886625 2.64678365,38.8212779 2.785,38.596 C2.84681948,38.4832225 2.88653089,38.3596759 2.902,38.232 C2.94658927,37.8399055 2.75406024,37.4587767 2.412,37.262 C2.30008266,37.1981321 2.17794124,37.1541477 2.051,37.132 C1.92393168,37.1065172 1.79306832,37.1065172 1.666,37.132 C1.40436076,37.192302 1.17572171,37.350453 1.027,37.574 C0.901292109,37.8110611 0.870543173,38.0870864 0.941,38.346 C1.01407204,38.6078249 1.18150187,38.8333208 1.411,38.979 Z" id="Shape" fill="#428DFF"/><path d="M37.765,2.022 C30.080924,-0.0591468726 21.8836309,1.02002235 15,5.019 C12.5811354,6.44736938 10.3618801,8.18948481 8.4,10.2 C6.44896466,12.2199092 4.79872217,14.5100416 3.5,17 C2.17512042,19.4771887 1.21903589,22.1345511 0.662,24.888 C0.492008525,25.5684599 0.371031605,26.260234 0.3,26.958 C0.223,27.658 0.122,28.35 0.066,29.048 C-0.0113514155,30.4474668 0.00368120861,31.8505118 0.111,33.248 L0.19,34.283 C0.213599541,34.5529915 0.348177589,34.8010844 0.561627945,34.9680913 C0.775078301,35.1350982 1.04825991,35.2060428 1.316,35.164 C1.84618032,35.0781546 2.22140591,34.5993284 2.178,34.064 L2.107,33.1 C2.0064992,31.7947124 1.99146713,30.4842495 2.062,29.177 C2.115,28.525 2.212,27.877 2.283,27.226 C2.34709822,26.5764878 2.45974654,25.9326876 2.62,25.3 C3.13767477,22.7296134 4.02914132,20.2489376 5.266,17.937 C6.47935106,15.6136649 8.02082543,13.4770878 9.843,11.593 C11.6742941,9.71674427 13.7443742,8.08946021 16,6.753 C25.8084618,1.08928792 38.063005,1.89252491 47.0482556,8.78809073 C56.0335062,15.6836566 59.9795505,27.3132633 57.046,38.253 C54.1130848,49.1908717 44.880495,57.285222 33.6529389,58.7620481 C22.4253829,60.2388743 11.4136592,54.8073771 5.752,45 L4.872,43.28 L4.434,42.419 L4.084,41.519 C3.87163036,41.0187728 3.30322964,40.7742283 2.794,40.964 C2.54317407,41.0596794 2.34177464,41.2528388 2.23570672,41.4994514 C2.1296388,41.746064 2.12794089,42.0251149 2.231,42.273 L2.609,43.236 L3.076,44.159 L4.019,46 C7.98077427,52.9049203 14.5400289,57.9381472 22.235,59.978 C24.7832654,60.6628892 27.4103023,61.0108522 30.049,61.013 C40.7594834,60.9917493 50.6467988,55.2639173 55.9931931,45.9832398 C61.3395874,36.7025624 61.3345595,25.2759689 55.98,16 C52.0184576,9.09529032 45.4595995,4.06209141 37.765,2.022 Z" id="Shape" fill="#428DFF"/><path d="M19.591,7.183 C18.7050843,7.57049148 17.8402169,8.00442723 17,8.483 C12.1092445,11.2821528 8.27252017,15.6093145 6.079,20.8 C5.86333282,21.3086543 6.10084576,21.8958328 6.60950001,22.1115 C7.11815426,22.3271672 7.7053328,22.0896542 7.921,21.581 C9.94363118,16.7926507 13.4825441,12.8008777 17.994,10.219 C18.7722101,9.77682832 19.5733366,9.3762651 20.394,9.019 C20.7216125,8.87609376 20.9480995,8.56926374 20.9881453,8.21408984 C21.0281911,7.85891593 20.875712,7.50935751 20.5881453,7.29708984 C20.3005786,7.08482217 19.9216125,7.04209376 19.594,7.185 L19.591,7.183 Z" id="Shape" fill="#428DFF"/><path d="M37.026,53.944 C36.5526622,54.0892523 36.2568805,54.5590141 36.3304742,55.0486373 C36.4040679,55.5382605 36.824877,55.9003139 37.32,55.9 C37.4196832,55.9005906 37.5188573,55.8857483 37.614,55.856 C39.4901001,55.2773515 41.2964216,54.492913 43,53.517 C47.8907555,50.7178472 51.7274798,46.3906855 53.921,41.2 C54.1366672,40.6913457 53.8991543,40.1041672 53.3905,39.8885 C52.8818457,39.6728328 52.2946672,39.9103457 52.079,40.419 C50.0548676,45.2087975 46.5137892,49.2013379 42,51.783 C40.4271266,52.685277 38.7588983,53.4100541 37.026,53.944 Z" id="Shape" fill="#428DFF"/><path d="M18.083,16.23 C18.069,16.239 18.053,16.24 18.039,16.249 C18.0157348,16.2707556 17.9937006,16.2937914 17.973,16.318 C12.7849269,20.5810214 10.2267715,27.2621695 11.241,33.9 C11.241,33.912 11.248,33.922 11.248,33.933 C12.2467743,40.6629766 16.7867931,46.3362468 23.1341195,48.7860595 C29.481446,51.2358721 36.6557495,50.0838589 41.917,45.77 C41.931,45.761 41.947,45.76 41.961,45.751 C41.9842652,45.7292444 42.0062994,45.7062086 42.027,45.682 C47.2150731,41.4189786 49.7732285,34.7378305 48.759,28.1 C48.759,28.088 48.752,28.078 48.752,28.067 C48.0560732,23.4480774 45.6566985,19.2568413 42.026,16.318 C42.001,16.297 41.987,16.268 41.96,16.249 C41.949,16.242 41.936,16.241 41.925,16.234 C36.6629438,11.9975196 29.5493204,10.8683066 23.234,13.267 C23.224,13.272 23.213,13.267 23.202,13.275 L23.189,13.285 C21.331098,13.968075 19.6038241,14.9641239 18.082,16.23 L18.083,16.23 Z M26.046,26.364 C26.0742638,26.3485438 26.1016399,26.3315171 26.128,26.313 L26.982,25.813 L28.73,24.803 C29.0009259,24.6418001 29.1785466,24.360877 29.208,24.047 C29.8554548,23.9787241 30.5092152,23.9995852 31.151,24.109 C31.2990506,24.5956388 31.6269605,25.0075824 32.068,25.261 L33.93,26.343 C34.3737919,26.5980111 34.8984647,26.6731689 35.396,26.553 C35.6445977,26.8490745 35.868356,27.1651456 36.065,27.498 C36.2545119,27.8327002 36.4150953,28.1829728 36.545,28.545 C36.1933376,28.9162358 35.9981626,29.4086497 36,29.92 L36,32.08 C35.9989725,32.5889312 36.1937564,33.0787556 36.544,33.448 C36.3160161,34.0571184 36.0050846,34.6318705 35.62,35.156 C35.3344797,35.025333 35.0036893,35.039085 34.73,35.193 L34,35.616 C33.985,35.624 33.969,35.628 33.954,35.636 C33.9257362,35.6514562 33.8983601,35.6684829 33.872,35.687 L33.018,36.187 L31.27,37.197 C30.9990741,37.3581999 30.8214534,37.639123 30.792,37.953 C30.1418218,38.021595 29.4852849,38.0000582 28.841,37.889 C28.6953981,37.4040291 28.3712631,36.9923383 27.934,36.737 L26.066,35.658 C25.6240157,35.4060758 25.1026388,35.3320531 24.608,35.451 C24.3572977,35.1542179 24.132161,34.8367518 23.935,34.502 C23.7454881,34.1672998 23.5849047,33.8170272 23.455,33.455 C23.8066624,33.0837642 24.0018374,32.5913503 24,32.08 L24,29.92 C24.0010275,29.4110688 23.8062436,28.9212444 23.456,28.552 C23.6835155,27.9436839 23.9937665,27.3696185 24.378,26.846 C24.6628893,26.9842345 24.9982625,26.9695713 25.27,26.807 L26.011,26.378 C26.022,26.372 26.035,26.371 26.046,26.364 Z M40.026,17.28 L34.932,24.616 L33.064,23.537 L36.87,15.466 C37.9840602,15.9556361 39.042159,16.5638082 40.026,17.28 Z M46.877,32.824 L38,32.08 L38,29.916 L46.887,29.175 C47.0146969,30.3881641 47.0113442,31.611554 46.877,32.824 Z M20.053,44.606 L25.066,37.387 L26.934,38.465 L23.188,46.412 L20.053,44.606 Z M13.123,29.176 L22,29.92 L22,32.084 L13.113,32.825 C12.9853031,31.6118359 12.9886558,30.388446 13.123,29.176 Z M18.429,18.563 L23.085,25.268 C22.4407289,26.0468309 21.9313585,26.9280044 21.578,27.875 L13.458,27.197 C14.2141313,23.886582 15.9457259,20.8790206 18.429,18.563 Z M15.277,39.5 C14.4307016,38.0342792 13.8087975,36.4500249 13.432,34.8 L21.577,34.121 C21.7462887,34.5969073 21.9564044,35.057288 22.205,35.497 C22.4627285,35.9326661 22.7567723,36.3457994 23.084,36.732 L18.423,43.443 C17.18356,42.2929162 16.1231566,40.9638727 15.277,39.5 Z M25.015,47.226 L28.491,39.85 C28.9992015,39.942959 29.5143962,39.9924712 30.031,39.998 C30.5276391,39.9931447 31.0230138,39.9469855 31.512,39.86 L34.99,47.238 C31.7388512,48.2331934 28.2637449,48.2290128 25.015,47.226 Z M38.5,45.726 C37.9732357,46.0285159 37.4308083,46.3029008 36.875,46.548 L33.075,38.467 L34.034,37.91 L34.934,37.392 L40.034,44.727 C39.5408135,45.0861464 39.0287469,45.4186225 38.5,45.723 L38.5,45.726 Z M41.571,43.44 L36.914,36.74 C37.5589361,35.9614573 38.0686785,35.080225 38.422,34.133 L46.542,34.811 C45.7843863,38.1185436 44.0529003,41.12313 41.571,43.437 L41.571,43.44 Z M44.723,22.5 C45.5692984,23.9657208 46.1912025,25.5499751 46.568,27.2 L38.423,27.879 C38.2554791,27.4022315 38.0470357,26.9408455 37.8,26.5 C37.5415127,26.0628361 37.2464579,25.6483543 36.918,25.261 L41.579,18.561 C42.8173056,19.7101102 43.8770003,21.0377621 44.723,22.5 Z M29.971,14 C31.6722591,14.0029679 33.3635515,14.2597963 34.989,14.762 L31.507,22.146 C30.508264,21.9740413 29.4877435,21.970999 28.488,22.137 L25.007,14.753 C26.6149443,14.2562382 28.2880706,14.0024381 29.971,14 Z M23.127,15.46 L26.927,23.536 L25.968,24.093 L25.068,24.611 L19.968,17.276 C20.947379,16.5529531 22.0058547,15.9437006 23.123,15.46 L23.127,15.46 Z" id="Shape" fill="#428DFF"/><path d="M28.965,34.863 C30.8083898,35.3565835 32.7437359,34.479252 33.5874293,32.7675592 C34.4311227,31.0558665 33.9481756,28.9865581 32.4339462,27.825171 C30.9197169,26.6637839 28.7959527,26.7337909 27.3614945,27.9923775 C25.9270363,29.2509641 25.5814134,31.3475851 26.536,33 C27.066614,33.9185069 27.9403383,34.588638 28.965,34.863 Z M28.065,30.482 C28.3018529,29.6080704 29.0945436,29.0009554 30,29 C30.1759251,29.0002935 30.3510635,29.0234884 30.521,29.069 C31.5877942,29.35516 32.2206589,30.4519078 31.9345831,31.5187246 C31.6485073,32.5855415 30.5518096,33.2184928 29.4849701,32.9325013 C28.4181307,32.6465098 27.7850928,31.549862 28.071,30.483 L28.065,30.482 Z" id="Shape" fill="#428DFF"/><circle id="Oval" fill="#428DFF" cx="23" cy="7" r="1"/></g></g></svg>
